RobotoAvar2-VANG-3.ufo
<glyph name="ampersand" format="2">
  <advance width="1280"/>
  <unicode hex="0026"/>
  <outline>
    <contour>
      <point x="98.08504387244415" y="380.0" type="qcurve" smooth="yes"/>
      <point x="89.69979918715745" y="540.0"/>
      <point x="297.85564106919" y="766.0"/>
      <point x="442.9293098165841" y="860.0" type="qcurve" smooth="yes"/>
      <point x="597.68853188828" y="960.0" type="line" smooth="yes"/>
      <point x="675.0681429241279" y="1010.0"/>
      <point x="729.8273649958237" y="1110.0"/>
      <point x="726.6828982388412" y="1170.0" type="qcurve" smooth="yes"/>
      <point x="723.0143536890282" y="1240.0"/>
      <point x="628.0880224364223" y="1334.0"/>
      <point x="543.0880224364223" y="1334.0" type="qcurve" smooth="yes"/>
      <point x="458.0880224364223" y="1334.0"/>
      <point x="365.53843148185865" y="1230.0"/>
      <point x="369.20697603167156" y="1160.0" type="qcurve" smooth="yes"/>
      <point x="372.8755205814845" y="1090.0"/>
      <point x="459.68853188827995" y="960.0"/>
      <point x="563.9774654022449" y="840.0" type="qcurve" smooth="yes"/>
      <point x="1294.0" y="0.0" type="line"/>
      <point x="1072.0" y="0.0" type="line"/>
      <point x="429.2182433305491" y="740.0" type="line" smooth="yes"/>
      <point x="316.4052320237537" y="870.0"/>
      <point x="192.44775395997576" y="1060.0"/>
      <point x="187.20697603167156" y="1160.0" type="qcurve" smooth="yes"/>
      <point x="179.86988693204574" y="1300.0"/>
      <point x="380.12203998539997" y="1486.0"/>
      <point x="535.1220399854" y="1486.0" type="qcurve" smooth="yes"/>
      <point x="690.1220399854" y="1486.0"/>
      <point x="891.3458091392154" y="1310.0"/>
      <point x="898.1588204460107" y="1180.0" type="qcurve" smooth="yes"/>
      <point x="904.4477539599758" y="1060.0"/>
      <point x="796.8329986452625" y="900.0"/>
      <point x="703.9774654022449" y="840.0" type="qcurve" smooth="yes"/>
      <point x="549.2182433305491" y="740.0" type="line" smooth="yes"/>
      <point x="413.8301279074568" y="652.0"/>
      <point x="276.32018815130954" y="490.0"/>
      <point x="282.08504387244415" y="380.0" type="qcurve" smooth="yes"/>
      <point x="287.8498995935787" y="270.0"/>
      <point x="451.0821731346385" y="132.0"/>
      <point x="581.0821731346385" y="132.0" type="qcurve" smooth="yes"/>
      <point x="761.0821731346385" y="132.0"/>
      <point x="1005.9887327011224" y="420.0"/>
      <point x="992.6771567632298" y="674.0" type="qcurve"/>
      <point x="1164.67715676323" y="674.0" type="line"/>
      <point x="1180.0850438724442" y="380.0"/>
      <point x="849.0481555856609" y="-20.0"/>
      <point x="589.0481555856609" y="-20.0" type="qcurve" smooth="yes"/>
      <point x="369.0481555856608" y="-20.0"/>
      <point x="107.25640524697644" y="205.0"/>
    </contour>
  </outline>
</glyph>
<glyph name="asterisk" format="2">
  <advance width="1080"/>
  <unicode hex="002A"/>
  <outline>
    <contour>
      <point x="40.604977297824874" y="1057.0" type="line"/>
      <point x="90.17157702687736" y="1237.0" type="line"/>
      <point x="464.45200615359795" y="1079.0" type="line"/>
      <point x="405.6461177782304" y="1476.0" type="line"/>
      <point x="595.6461177782304" y="1476.0" type="line"/>
      <point x="578.452006153598" y="1079.0" type="line"/>
      <point x="936.1715770268773" y="1237.0" type="line"/>
      <point x="1004.6049772978249" y="1057.0" type="line"/>
      <point x="620.2168618747326" y="969.0" type="line"/>
      <point x="899.834380101079" y="671.0" type="line"/>
      <point x="751.7040513807797" y="559.0" type="line"/>
      <point x="530.6757753074132" y="903.0" type="line"/>
      <point x="345.7040513807797" y="559.0" type="line"/>
      <point x="185.83438010107898" y="671.0" type="line"/>
      <point x="434.21686187473256" y="969.0" type="line"/>
    </contour>
  </outline>
</glyph>
<glyph name="E" format="2">
  <advance width="1162"/>
  <unicode hex="0045"/>
  <anchor x="668.0" y="0" name="bottom"/>
  <anchor x="1132.0" y="0" name="ogonek"/>
  <anchor x="606.6942733638912" y="1456" name="top"/>
  <anchor x="-93.28595494998683" y="1074" name="tonos"/>
  <outline>
    <contour>
      <point x="208.0" y="0.0" type="line"/>
      <point x="131.69427336389123" y="1456.0" type="line"/>
      <point x="1045.6942733638912" y="1456.0" type="line"/>
      <point x="1053.974702490612" y="1298.0" type="line"/>
      <point x="331.97470249061183" y="1298.0" type="line"/>
      <point x="391.7195708732794" y="158.0" type="line"/>
      <point x="1123.7195708732795" y="158.0" type="line"/>
      <point x="1132.0" y="0.0" type="line"/>
    </contour>
    <contour>
      <point x="268.78197232179593" y="672.0" type="line"/>
      <point x="260.5015431950753" y="830.0" type="line"/>
      <point x="986.5015431950753" y="830.0" type="line"/>
      <point x="994.7819723217959" y="672.0" type="line"/>
    </contour>
  </outline>
</glyph>
<glyph name="K" format="2">
  <advance width="1266"/>
  <unicode hex="004B"/>
  <anchor x="671.0" y="0" name="bottom"/>
  <anchor x="594.6942733638912" y="1456" name="top"/>
  <outline>
    <contour>
      <point x="208.0" y="0.0" type="line"/>
      <point x="131.69427336389123" y="1456.0" type="line"/>
      <point x="323.6942733638912" y="1456.0" type="line"/>
      <point x="400.0" y="0.0" type="line"/>
    </contour>
    <contour>
      <point x="1088.0" y="0.0" type="line"/>
      <point x="484.37971886202047" y="756.0" type="line"/>
      <point x="601.3570764380928" y="890.0" type="line"/>
      <point x="1324.0" y="0.0" type="line"/>
    </contour>
    <contour>
      <point x="283.3513349624816" y="394.0" type="line"/>
      <point x="270.77346793455155" y="634.0" type="line"/>
      <point x="971.6942733638912" y="1456.0" type="line"/>
      <point x="1203.6942733638912" y="1456.0" type="line"/>
    </contour>
  </outline>
</glyph>
<glyph name="O" format="2">
  <advance width="1460"/>
  <unicode hex="004F"/>
  <anchor x="768.0" y="0" name="bottom"/>
  <anchor x="729.8471366819456" y="728" name="center"/>
  <anchor x="966.0" y="0" name="ogonek"/>
  <anchor x="691.6942733638912" y="1456" name="top"/>
  <anchor x="884.6942733638912" y="1456" name="topright"/>
  <anchor x="6.714045050013169" y="1074" name="tonos"/>
  <anchor x="307.6941655377187" y="750" name="yu_dash"/>
  <outline>
    <contour>
      <point x="117.25789452896552" y="682.0" type="qcurve" smooth="yes"/>
      <point x="112.43637883492569" y="774.0" type="line" smooth="yes"/>
      <point x="94.82736499582367" y="1110.0"/>
      <point x="420.12203998539997" y="1486.0"/>
      <point x="690.1220399854" y="1486.0" type="qcurve" smooth="yes"/>
      <point x="960.1220399854" y="1486.0"/>
      <point x="1324.8273649958237" y="1110.0"/>
      <point x="1342.4363788349258" y="774.0" type="qcurve" smooth="yes"/>
      <point x="1347.2578945289656" y="682.0" type="line" smooth="yes"/>
      <point x="1364.8669083680675" y="346.0"/>
      <point x="1039.572233378491" y="-30.0"/>
      <point x="769.5722333784912" y="-30.0" type="qcurve" smooth="yes"/>
      <point x="499.57223337849126" y="-30.0"/>
      <point x="134.86690836806756" y="346.0"/>
    </contour>
    <contour>
      <point x="311.25789452896555" y="682.0" type="line" smooth="yes"/>
      <point x="324.67428602542424" y="426.0"/>
      <point x="570.9773575760724" y="134.0"/>
      <point x="760.9773575760724" y="134.0" type="qcurve" smooth="yes"/>
      <point x="950.9773575760724" y="134.0"/>
      <point x="1166.6742860254242" y="426.0"/>
      <point x="1153.2578945289656" y="682.0" type="qcurve" smooth="yes"/>
      <point x="1148.4363788349258" y="774.0" type="line" smooth="yes"/>
      <point x="1135.019987338467" y="1030.0"/>
      <point x="888.7169157878188" y="1322.0"/>
      <point x="698.7169157878188" y="1322.0" type="qcurve" smooth="yes"/>
      <point x="508.71691578781883" y="1322.0"/>
      <point x="293.019987338467" y="1030.0"/>
      <point x="306.4363788349257" y="774.0" type="qcurve" smooth="yes"/>
    </contour>
  </outline>
</glyph>
<glyph name="R" format="2">
  <advance width="1247"/>
  <unicode hex="0052"/>
  <anchor x="640.0" y="0" name="bottom"/>
  <anchor x="563.6942733638912" y="1456" name="top"/>
  <outline>
    <contour>
      <point x="205.0" y="0.0" type="line"/>
      <point x="128.69427336389123" y="1456.0" type="line"/>
      <point x="602.6942733638912" y="1456.0" type="line" smooth="yes"/>
      <point x="836.6942733638912" y="1456.0"/>
      <point x="1102.957693716123" y="1222.0"/>
      <point x="1113.124802897033" y="1028.0" type="qcurve" smooth="yes"/>
      <point x="1123.2919120779432" y="834.0"/>
      <point x="881.8697791058732" y="594.0"/>
      <point x="647.8697791058732" y="594.0" type="qcurve" smooth="yes"/>
      <point x="269.8697791058732" y="594.0" type="line"/>
      <point x="261.6941655377187" y="750.0" type="line"/>
      <point x="639.6941655377187" y="750.0" type="line" smooth="yes"/>
      <point x="805.6941655377187" y="750.0"/>
      <point x="927.204105293866" y="912.0"/>
      <point x="921.1248028970331" y="1028.0" type="qcurve" smooth="yes"/>
      <point x="915.0455005002002" y="1144.0"/>
      <point x="776.8698869320457" y="1300.0"/>
      <point x="610.8698869320457" y="1300.0" type="qcurve" smooth="yes"/>
      <point x="328.86988693204574" y="1300.0" type="line"/>
      <point x="397.0" y="0.0" type="line"/>
    </contour>
    <contour>
      <point x="1031.0" y="0.0" type="line"/>
      <point x="639.7819723217959" y="672.0" type="line"/>
      <point x="828.2621467225878" y="701.0" type="line"/>
      <point x="1245.0" y="0.0" type="line"/>
    </contour>
  </outline>
</glyph>
<glyph name="bracketleft" format="2">
  <advance width="700"/>
  <unicode hex="005B"/>
  <outline>
    <contour>
      <point x="198.24641157774295" y="-310.0" type="line"/>
      <point x="105.69427336389123" y="1456.0" type="line"/>
      <point x="581.6942733638912" y="1456.0" type="line"/>
      <point x="590.0795180491779" y="1296.0" type="line"/>
      <point x="299.07951804917786" y="1296.0" type="line"/>
      <point x="374.86116689245625" y="-150.0" type="line"/>
      <point x="665.8611668924563" y="-150.0" type="line"/>
      <point x="674.246411577743" y="-310.0" type="line"/>
    </contour>
  </outline>
</glyph>
<glyph name="underscore" format="2">
  <advance width="1024"/>
  <unicode hex="005F"/>
  <outline>
    <contour>
      <point x="59.801636181745366" y="-416.0" type="line"/>
      <point x="50.78749814506219" y="-244.0" type="line"/>
      <point x="1074.7874981450623" y="-244.0" type="line"/>
      <point x="1083.8016361817454" y="-416.0" type="line"/>
    </contour>
  </outline>
</glyph>
<glyph name="a" format="2">
  <advance width="1106"/>
  <unicode hex="0061"/>
  <anchor x="591.0" y="0" name="bottom"/>
  <anchor x="1007.0" y="0" name="ogonek"/>
  <anchor x="535.86701619424" y="1052" name="top"/>
  <outline>
    <contour>
      <point x="489.0481555856608" y="-20.0" type="qcurve" smooth="yes"/>
      <point x="339.0481555856608" y="-20.0"/>
      <point x="120.13883310754373" y="150.0"/>
      <point x="111.75358842225705" y="310.0" type="qcurve" smooth="yes"/>
      <point x="103.36834373697039" y="470.0"/>
      <point x="348.03975902458893" y="648.0"/>
      <point x="544.0397590245889" y="648.0" type="qcurve" smooth="yes"/>
      <point x="875.039759024589" y="648.0" type="line"/>
      <point x="881.9575858899505" y="516.0" type="line"/>
      <point x="570.9575858899505" y="516.0" type="line" smooth="yes"/>
      <point x="430.95758588995045" y="516.0"/>
      <point x="292.5128104939529" y="410.0"/>
      <point x="297.2295106294266" y="320.0" type="qcurve" smooth="yes"/>
      <point x="301.9462107649004" y="230.0"/>
      <point x="411.29180425177066" y="128.0"/>
      <point x="521.2918042517706" y="128.0" type="qcurve" smooth="yes"/>
      <point x="631.2918042517706" y="128.0"/>
      <point x="801.3258218007483" y="280.0"/>
      <point x="796.8711605616897" y="365.0" type="qcurve"/>
      <point x="778.2663989162099" y="720.0" type="line" smooth="yes"/>
      <point x="773" y="815"/>
      <point x="669.051134149639" y="934.0"/>
      <point x="549.051134149639" y="934.0" type="qcurve" smooth="yes"/>
      <point x="429.051134149639" y="934.0"/>
      <point x="331.23950429866017" y="835.0"/>
      <point x="334.64600995205785" y="770.0" type="qcurve" smooth="yes"/>
      <point x="334.9080488484731" y="765.0" type="line"/>
      <point x="149.90804884847307" y="765.0" type="line"/>
      <point x="149.64600995205785" y="770.0" type="line" smooth="yes"/>
      <point x="143.09503754167764" y="895.0"/>
      <point x="356.2947828157488" y="1082.0"/>
      <point x="546.2947828157488" y="1082.0" type="qcurve" smooth="yes"/>
      <point x="736.2947828157488" y="1082.0"/>
      <point x="954.8329986452625" y="900.0"/>
      <point x="964.2663989162099" y="720.0" type="qcurve" smooth="yes"/>
      <point x="989.42213297207" y="240.0" type="line" smooth="yes"/>
      <point x="992.8286386254676" y="175.0"/>
      <point x="1018.8555332430175" y="60.0"/>
      <point x="1039.1614755314713" y="16.0" type="qcurve"/>
      <point x="1040.0" y="0.0" type="line"/>
      <point x="860.0" y="0.0" type="line"/>
      <point x="844.6898055179239" y="25.0"/>
      <point x="817.4971831752806" y="105.0"/>
      <point x="812.400872003959" y="145.0" type="qcurve"/>
      <point x="778.8073776573567" y="80.0"/>
      <point x="619.0481555856609" y="-20.0"/>
    </contour>
  </outline>
</glyph>
<glyph name="d" format="2">
  <advance width="1170"/>
  <unicode hex="0064"/>
  <anchor x="623.0" y="0" name="bottom"/>
  <anchor x="781.2848969726879" y="1273" name="center"/>
  <anchor x="546.6942733638912" y="1456" name="top"/>
  <anchor x="1104.86701619424" y="1052" name="topright"/>
  <outline>
    <contour>
      <point x="797.6942733638912" y="1456.0" type="line"/>
      <point x="983.6942733638912" y="1456.0" type="line"/>
      <point x="1060.0" y="0.0" type="line"/>
      <point x="892.0" y="0.0" type="line"/>
      <point x="876.8201342382233" y="137.0" type="line"/>
      <point x="866.8201342382233" y="137.0" type="line"/>
    </contour>
    <contour>
      <point x="554.7848430596016" y="920.0" type="qcurve" smooth="yes"/>
      <point x="404.7848430596016" y="920.0"/>
      <point x="276.2097389433047" y="702.0"/>
      <point x="284.59498362859136" y="542.0" type="qcurve" smooth="yes"/>
      <point x="286.2720325656487" y="510.0" type="line" smooth="yes"/>
      <point x="294.6572772509354" y="350.0"/>
      <point x="446.0821731346385" y="132.0"/>
      <point x="596.0821731346385" y="132.0" type="qcurve" smooth="yes"/>
      <point x="737.0821731346385" y="132.0"/>
      <point x="898.4476461338032" y="354.0"/>
      <point x="890.63888702063" y="503.0" type="qcurve" smooth="yes"/>
      <point x="889.1714692007048" y="531.0" type="line" smooth="yes"/>
      <point x="880.1049233847386" y="704.0"/>
      <point x="690.7848430596016" y="920.0"/>
    </contour>
    <contour>
      <point x="506.81886060857926" y="1072.0" type="qcurve" smooth="yes"/>
      <point x="713.8188606085793" y="1072.0"/>
      <point x="943.3315632763596" y="776.0"/>
      <point x="956.1714692007048" y="531.0" type="qcurve" smooth="yes"/>
      <point x="957.5340714620639" y="505.0" type="line" smooth="yes"/>
      <point x="969.2210062421823" y="282.0"/>
      <point x="764.0481555856609" y="-20.0"/>
      <point x="564.0481555856609" y="-20.0" type="qcurve" smooth="yes"/>
      <point x="364.0481555856608" y="-20.0"/>
      <point x="108.32582180074832" y="280.0"/>
      <point x="96.27203256564871" y="510.0" type="qcurve" smooth="yes"/>
      <point x="94.59498362859138" y="542.0" type="line" smooth="yes"/>
      <point x="82.54119439349176" y="772.0"/>
      <point x="306.81886060857926" y="1072.0"/>
    </contour>
  </outline>
</glyph>
<glyph name="l" format="2">
  <advance width="498"/>
  <unicode hex="006C"/>
  <anchor x="287.0" y="0" name="bottom"/>
  <anchor x="245.545446587114" y="791" name="center"/>
  <anchor x="210.69427336389123" y="1456" name="top"/>
  <anchor x="424.8670161942401" y="1052" name="topright"/>
  <anchor x="258.59498362859136" y="542" name="yu_dash"/>
  <anchor x="248.8471366819456" y="728" name="slash"/>
  <outline>
    <contour>
      <point x="194.0" y="0.0" type="line"/>
      <point x="117.69427336389123" y="1456.0" type="line"/>
      <point x="303.6942733638912" y="1456.0" type="line"/>
      <point x="380.0" y="0.0" type="line"/>
    </contour>
  </outline>
</glyph>
<glyph name="m" format="2">
  <advance width="1764"/>
  <unicode hex="006D"/>
  <anchor x="920.0" y="0" name="bottom"/>
  <anchor x="864.8670161942401" y="1052" name="top"/>
  <outline>
    <contour>
      <point x="186.0" y="0.0" type="line"/>
      <point x="130.86701619424008" y="1052.0" type="line"/>
      <point x="298.8670161942401" y="1052.0" type="line"/>
      <point x="332.3273110827374" y="757.0" type="line"/>
      <point x="372.0" y="0.0" type="line"/>
    </contour>
    <contour>
      <point x="982.3103023082485" y="681.0" type="qcurve" smooth="yes"/>
      <point x="1018.0" y="0.0" type="line"/>
      <point x="832.0" y="0.0" type="line"/>
      <point x="796.3103023082485" y="681.0" type="line" smooth="yes"/>
      <point x="789.7069221185853" y="807.0"/>
      <point x="675.9944741767338" y="916.0"/>
      <point x="576.9944741767338" y="916.0" type="qcurve" smooth="yes"/>
      <point x="485.9944741767338" y="916.0"/>
      <point x="344.1785921321327" y="798.0"/>
      <point x="252.3414491194206" y="585.0" type="qcurve"/>
      <point x="242.96045662775612" y="764.0" type="line"/>
      <point x="309.6318719153747" y="942.0"/>
      <point x="513.8188606085793" y="1072.0"/>
      <point x="623.8188606085793" y="1072.0" type="qcurve" smooth="yes"/>
      <point x="773.8188606085793" y="1072.0"/>
      <point x="971.4094842173758" y="889.0"/>
    </contour>
    <contour>
      <point x="885.8683976500566" y="823.0" type="line"/>
      <point x="904.9944741767338" y="916.0"/>
      <point x="1113.8188606085791" y="1072.0"/>
      <point x="1251.8188606085791" y="1072.0" type="qcurve" smooth="yes"/>
      <point x="1423.8188606085791" y="1072.0"/>
      <point x="1617.3046686588098" y="891.0"/>
      <point x="1628.4151178668146" y="679.0" type="qcurve" smooth="yes"/>
      <point x="1664.0" y="0.0" type="line"/>
      <point x="1478.0" y="0.0" type="line"/>
      <point x="1442.3103023082485" y="681.0" type="line" smooth="yes"/>
      <point x="1435.7069221185852" y="807.0"/>
      <point x="1321.9944741767338" y="916.0"/>
      <point x="1211.9944741767338" y="916.0" type="qcurve" smooth="yes"/>
      <point x="1100.9944741767338" y="916.0"/>
      <point x="928.4802822269643" y="735.0"/>
      <point x="898.3414491194205" y="585.0" type="qcurve"/>
    </contour>
  </outline>
</glyph>
<glyph name="t" format="2">
  <advance width="650"/>
  <unicode hex="0074"/>
  <anchor x="426.0" y="0" name="bottom"/>
  <anchor x="330.55958462379715" y="619" name="center"/>
  <anchor x="294.2409935806492" y="1312" name="top"/>
  <anchor x="682.8670161942401" y="1052" name="topright"/>
  <outline>
    <contour>
      <point x="-9.69107914756799" y="910.0" type="line"/>
      <point x="-17.132983805759913" y="1052.0" type="line"/>
      <point x="582.8670161942401" y="1052.0" type="line"/>
      <point x="590.308920852432" y="910.0" type="line"/>
    </contour>
    <contour>
      <point x="212.37397738640914" y="260.0" type="qcurve" smooth="yes"/>
      <point x="175.3740852125817" y="966.0" type="line"/>
      <point x="173.80185183409043" y="996.0" type="line"/>
      <point x="157.24099358064922" y="1312.0" type="line"/>
      <point x="343.2409935806492" y="1312.0" type="line"/>
      <point x="398.37397738640914" y="260.0" type="line" smooth="yes"/>
      <point x="402.04252193622204" y="190.0"/>
      <point x="461.18698869320457" y="130.0"/>
      <point x="521.1869886932045" y="130.0" type="qcurve" smooth="yes"/>
      <point x="549.1869886932045" y="130.0"/>
      <point x="602.5580953418081" y="142.0"/>
      <point x="630.0340175489777" y="152.0" type="qcurve"/>
      <point x="638.0" y="0.0" type="line"/>
      <point x="612.6288933513965" y="-12.0"/>
      <point x="529.5722333784913" y="-30.0"/>
      <point x="479.57223337849126" y="-30.0" type="qcurve" smooth="yes"/>
      <point x="364.57223337849126" y="-30.0"/>
      <point x="220.23514427886542" y="110.0"/>
    </contour>
  </outline>
</glyph>
<glyph name="y" format="2">
  <advance width="942"/>
  <unicode hex="0079"/>
  <anchor x="816.0" y="0" name="bottom"/>
  <anchor x="471.8670161942401" y="1052" name="top"/>
  <outline>
    <contour>
      <point x="109.80163618174537" y="-416.0" type="qcurve"/>
      <point x="101.52120705502477" y="-258.0" type="line"/>
      <point x="127.9404692892891" y="-266.0"/>
      <point x="192.4645470821195" y="-276.0"/>
      <point x="222.4645470821195" y="-276.0" type="qcurve" smooth="yes"/>
      <point x="292.4645470821195" y="-276.0"/>
      <point x="390.9617302574001" y="-171.0"/>
      <point x="439.7903688828678" y="4.0" type="qcurve"/>
      <point x="439.7379611035848" y="5.0" type="line"/>
      <point x="-7.132983805759913" y="1052.0" type="line"/>
      <point x="172.86701619424008" y="1052.0" type="line"/>
      <point x="458.13319945810497" y="360.0" type="line" smooth="yes"/>
      <point x="474.2295106294266" y="320.0"/>
      <point x="499.8980551792396" y="250.0"/>
      <point x="509.47028855773084" y="220.0" type="qcurve"/>
      <point x="515.4702885577308" y="220.0" type="line"/>
      <point x="522.8980551792396" y="250.0"/>
      <point x="542.2295106294266" y="320.0"/>
      <point x="553.133199458105" y="360.0" type="qcurve" smooth="yes"/>
      <point x="748.8670161942401" y="1052.0" type="line"/>
      <point x="924.8670161942401" y="1052.0" type="line"/>
      <point x="560.3370890996258" y="-140.0" type="line" smooth="yes"/>
      <point x="517.6741781992516" y="-280.0"/>
      <point x="360.8497917674062" y="-436.0"/>
      <point x="240.8497917674062" y="-436.0" type="qcurve" smooth="yes"/>
      <point x="200.8497917674062" y="-436.0"/>
      <point x="138.3257139745758" y="-426.0"/>
    </contour>
  </outline>
</glyph>
<glyph name="asciitilde" format="2">
  <advance width="1024"/>
  <unicode hex="007E"/>
  <outline>
    <contour>
      <point x="55.11906142142179" y="532.0" type="qcurve"/>
      <point x="44.53269000624736" y="734.0" type="line"/>
      <point x="88.85989326281222" y="785.0"/>
      <point x="217.87264984367886" y="842.0"/>
      <point x="282.8202420643958" y="843.0" type="qcurve" smooth="yes"/>
      <point x="361.76783428511277" y="844.0"/>
      <point x="456.02136879428355" y="801.0"/>
      <point x="520.6460099520579" y="770.0" type="qcurve" smooth="yes"/>
      <point x="581.2182433305491" y="740.0"/>
      <point x="668.2621467225878" y="701.0"/>
      <point x="742.2621467225878" y="701.0" type="qcurve" smooth="yes"/>
      <point x="807.2621467225878" y="701.0"/>
      <point x="928.6984177313409" y="769.0"/>
      <point x="972.5539509743584" y="829.0" type="qcurve"/>
      <point x="983.1927301688158" y="626.0" type="line"/>
      <point x="938.865526912251" y="575.0"/>
      <point x="817.9051781106674" y="517.0"/>
      <point x="752.9051781106674" y="517.0" type="qcurve" smooth="yes"/>
      <point x="678.9051781106674" y="517.0"/>
      <point x="591.8612747186288" y="556.0"/>
      <point x="531.2890413401376" y="586.0" type="qcurve" smooth="yes"/>
      <point x="466.66440018236324" y="617.0"/>
      <point x="371.4632734524755" y="659.0"/>
      <point x="292.4632734524755" y="659.0" type="qcurve" smooth="yes"/>
      <point x="227.4632734524755" y="659.0"/>
      <point x="98.97459466443928" y="592.0"/>
    </contour>
  </outline>
</glyph>
<glyph name="yen" format="2">
  <advance width="1024"/>
  <unicode hex="00A5"/>
  <outline>
    <contour>
      <point x="65.12044287723836" y="303.0" type="line"/>
      <point x="56.78760597123471" y="462.0" type="line"/>
      <point x="1002.7876059712347" y="462.0" type="line"/>
      <point x="1011.1204428772384" y="303.0" type="line"/>
    </contour>
    <contour>
      <point x="48.08791461024978" y="628.0" type="line"/>
      <point x="39.702669924963104" y="788.0" type="line"/>
      <point x="405.7026699249631" y="788.0" type="line"/>
      <point x="464.93919565964507" y="669.0" type="line"/>
      <point x="573.9391956596451" y="669.0" type="line"/>
      <point x="615.7026699249631" y="788.0" type="line"/>
      <point x="985.7026699249631" y="788.0" type="line"/>
      <point x="994.0879146102498" y="628.0" type="line"/>
    </contour>
    <contour>
      <point x="458.0" y="0.0" type="line"/>
      <point x="429.2805369528931" y="548.0" type="line"/>
      <point x="-73.30572663610877" y="1456.0" type="line"/>
      <point x="135.69427336389123" y="1456.0" type="line"/>
      <point x="443.50579538869755" y="849.0" type="line" smooth="yes"/>
      <point x="459.0780287671888" y="819.0"/>
      <point x="497.4760300333421" y="716.0"/>
      <point x="506.4151178668146" y="679.0" type="qcurve"/>
      <point x="526.4151178668146" y="679.0" type="line"/>
      <point x="532.4802822269644" y="735.0"/>
      <point x="559.0780287671888" y="819.0"/>
      <point x="571.5057953886976" y="849.0" type="qcurve" smooth="yes"/>
      <point x="819.6942733638912" y="1456.0" type="line"/>
      <point x="1020.6942733638912" y="1456.0" type="line"/>
      <point x="613.2805369528932" y="548.0" type="line"/>
      <point x="642.0" y="0.0" type="line"/>
    </contour>
  </outline>
</glyph>
<glyph name="paragraph" format="2">
  <advance width="1261"/>
  <unicode hex="00B6"/>
  <guideline x="-9.219409134020609" y="901" angle="0" identifier="27539Lsr1A"/>
  <guideline x="8.913682497911832" y="555" angle="0" identifier="e34wUdCmXR"/>
  <outline>
    <contour>
      <point x="778.6515357753241" y="-146.0" type="line"/>
      <point x="592.6515357753241" y="-146.0" type="line"/>
      <point x="548.524185619003" y="696.0" type="line"/>
      <point x="461.52418561900294" y="696.0" type="line" smooth="yes"/>
      <point x="266.52418561900294" y="696.0"/>
      <point x="46.20410529386593" y="912.0"/>
      <point x="37.60922949144708" y="1076.0" type="qcurve" smooth="yes"/>
      <point x="29.119169247594314" y="1238.0"/>
      <point x="226.69427336389123" y="1456.0"/>
      <point x="421.6942733638912" y="1456.0" type="qcurve" smooth="yes"/>
      <point x="694.6942733638912" y="1456.0" type="line"/>
    </contour>
    <contour>
      <point x="836.5370500260422" y="1459.0" type="line"/>
      <point x="1022.5370500260422" y="1459.0" type="line"/>
      <point x="1106.6515357753242" y="-146.0" type="line"/>
      <point x="920.6515357753241" y="-146.0" type="line"/>
    </contour>
  </outline>
</glyph>
<glyph name="periodcentered" format="2">
  <advance width="600"/>
  <unicode hex="00B7"/>
  <outline>
    <contour>
      <point x="174.74657331700172" y="749.0" type="qcurve" smooth="yes"/>
      <point x="172.17859213213268" y="798.0"/>
      <point x="232.51004758231977" y="868.0"/>
      <point x="292.51004758231977" y="868.0" type="qcurve" smooth="yes"/>
      <point x="352.51004758231977" y="868.0"/>
      <point x="420.1785921321327" y="798.0"/>
      <point x="422.7465733170017" y="749.0" type="qcurve" smooth="yes"/>
      <point x="425.31455450187076" y="700.0"/>
      <point x="364.9830990516837" y="630.0"/>
      <point x="304.9830990516837" y="630.0" type="qcurve" smooth="yes"/>
      <point x="244.9830990516837" y="630.0"/>
      <point x="177.3145545018708" y="700.0"/>
    </contour>
  </outline>
</glyph>
<glyph name="ordmasculine" format="2">
  <advance width="932"/>
  <unicode hex="00BA"/>
  <guideline x="-65.50536408400744" y="1975" angle="0" identifier="Jnt0R9CyOf"/>
  <outline>
    <contour>
      <point x="107.33868620778746" y="1043.0" type="qcurve"/>
      <point x="103.09365608586108" y="1124.0" type="line"/>
      <point x="95.02285807627266" y="1278.0"/>
      <point x="269.59370999894736" y="1477.0"/>
      <point x="426.59370999894736" y="1477.0" type="qcurve" smooth="yes"/>
      <point x="584.5937099989474" y="1477.0"/>
      <point x="779.0228580762727" y="1278.0"/>
      <point x="787.0936560858611" y="1124.0" type="qcurve"/>
      <point x="791.3386862077874" y="1043.0" type="line"/>
      <point x="799.4094842173758" y="889.0"/>
      <point x="626.7862245154181" y="691.0"/>
      <point x="469.78622451541816" y="691.0" type="qcurve" smooth="yes"/>
      <point x="311.78622451541816" y="691.0"/>
      <point x="115.40948421737589" y="889.0"/>
    </contour>
    <contour>
      <point x="266.0936560858611" y="1124.0" type="qcurve"/>
      <point x="270.3386862077875" y="1043.0" type="line"/>
      <point x="275.10779412254425" y="952.0"/>
      <point x="370.5015431950753" y="830.0"/>
      <point x="462.5015431950753" y="830.0" type="qcurve" smooth="yes"/>
      <point x="551.5015431950753" y="830.0"/>
      <point x="634.1077941225443" y="952.0"/>
      <point x="629.3386862077874" y="1043.0" type="qcurve"/>
      <point x="625.0936560858611" y="1124.0" type="line"/>
      <point x="620.4293637296704" y="1213.0"/>
      <point x="523.9832068778562" y="1336.0"/>
      <point x="433.9832068778562" y="1336.0" type="qcurve" smooth="yes"/>
      <point x="343.9832068778562" y="1336.0"/>
      <point x="261.4293637296704" y="1213.0"/>
    </contour>
  </outline>
</glyph>
<glyph name="germandbls" format="2">
  <advance width="1186"/>
  <unicode hex="00DF"/>
  <outline>
    <contour>
      <point x="315.8103562213348" y="1034.0" type="qcurve" name="hr00"/>
      <point x="370.0" y="0.0" type="line"/>
      <point x="186.0" y="0.0" type="line"/>
      <point x="131.81035622133484" y="1034.0" type="line" smooth="yes"/>
      <point x="121.17157702687736" y="1237.0"/>
      <point x="316.6461177782304" y="1476.0"/>
      <point x="515.6461177782304" y="1476.0" type="qcurve" smooth="yes"/>
      <point x="679.6461177782304" y="1476.0"/>
      <point x="886.7126635941966" y="1303.0"/>
      <point x="894.3641993695207" y="1157.0" type="qcurve" smooth="yes"/>
      <point x="898.2423750364658" y="1083.0"/>
      <point x="852.6927840819021" y="979.0"/>
      <point x="818.9987263703559" y="935.0" type="qcurve" smooth="yes"/>
      <point x="789.9902219831115" y="897.0"/>
      <point x="733.9732132086227" y="821.0"/>
      <point x="735.597854366397" y="790.0" type="qcurve" smooth="yes"/>
      <point x="737.4845344205866" y="754.0"/>
      <point x="875.7777201281738" y="653.0"/>
      <point x="960.0270024437224" y="591.0" type="qcurve" smooth="yes"/>
      <point x="1041.1190614214217" y="532.0"/>
      <point x="1155.2989271831984" y="395.0"/>
      <point x="1160.6969284493518" y="292.0" type="qcurve" smooth="yes"/>
      <point x="1167.247900859732" y="167.0"/>
      <point x="959.0481555856609" y="-20.0"/>
      <point x="792.0481555856609" y="-20.0" type="qcurve" smooth="yes"/>
      <point x="628.0481555856609" y="-20.0"/>
      <point x="423.2393964724876" y="129.0"/>
      <point x="415.4306373593144" y="278.0" type="qcurve" smooth="yes"/>
      <point x="414.0680350979553" y="304.0" type="line"/>
      <point x="577.0680350979553" y="304.0" type="line"/>
      <point x="577.5397051115027" y="295.0" type="line" smooth="yes"/>
      <point x="581.9419585712782" y="211.0"/>
      <point x="691.1345809139216" y="131.0"/>
      <point x="786.1345809139216" y="131.0" type="qcurve" smooth="yes"/>
      <point x="887.1345809139216" y="131.0"/>
      <point x="989.5751041162969" y="218.0"/>
      <point x="985.6969284493518" y="292.0" type="qcurve" smooth="yes"/>
      <point x="982.5524616923693" y="352.0"/>
      <point x="880.0453926740278" y="438.0"/>
      <point x="819.6346348270077" y="484.0" type="qcurve" smooth="yes"/>
      <point x="744.6473914078745" y="541.0"/>
      <point x="565.2054867496824" y="683.0"/>
      <point x="560.5936021727748" y="771.0" type="qcurve" smooth="yes"/>
      <point x="557.5539509743584" y="829.0"/>
      <point x="634.5270563568085" y="944.0"/>
      <point x="664.2211140683547" y="988.0" type="qcurve" smooth="yes"/>
      <point x="691.1248028970331" y="1028.0"/>
      <point x="722.0894038922389" y="1105.0"/>
      <point x="719.9406849416341" y="1146.0" type="qcurve" smooth="yes"/>
      <point x="715.2763925854434" y="1235.0"/>
      <point x="601.5596924499697" y="1325.0"/>
      <point x="519.5596924499697" y="1325.0" type="qcurve" smooth="yes"/>
      <point x="416.5596924499697" y="1325.0"/>
      <point x="308.0015971081616" y="1183.0"/>
    </contour>
  </outline>
</glyph>
<glyph name="ae" format="2">
  <advance width="1772"/>
  <unicode hex="00E6"/>
  <anchor x="882.8670161942401" y="1052" name="top"/>
  <outline>
    <contour>
      <point x="489.0481555856608" y="-20.0" type="qcurve" smooth="yes"/>
      <point x="339.0481555856608" y="-20.0"/>
      <point x="120.13883310754373" y="150.0"/>
      <point x="112.27766621508748" y="300.0" type="qcurve" smooth="yes"/>
      <point x="103.36834373697039" y="470.0"/>
      <point x="348.03975902458893" y="648.0"/>
      <point x="544.0397590245889" y="648.0" type="qcurve" smooth="yes"/>
      <point x="872.039759024589" y="648.0" type="line"/>
      <point x="878.9575858899505" y="516.0" type="line"/>
      <point x="570.9575858899505" y="516.0" type="line" smooth="yes"/>
      <point x="430.95758588995045" y="516.0"/>
      <point x="292.5128104939529" y="410.0"/>
      <point x="297.2295106294266" y="320.0" type="qcurve" smooth="yes"/>
      <point x="301.9462107649004" y="230.0"/>
      <point x="411.29180425177066" y="128.0"/>
      <point x="521.2918042517706" y="128.0" type="qcurve" smooth="yes"/>
      <point x="631.2918042517706" y="128.0"/>
      <point x="801.3258218007483" y="280.0"/>
      <point x="796.8711605616897" y="365.0" type="qcurve"/>
      <point x="778.2663989162099" y="720.0" type="line" smooth="yes"/>
      <point x="773.287659884321" y="815.0"/>
      <point x="669.051134149639" y="934.0"/>
      <point x="549.051134149639" y="934.0" type="qcurve" smooth="yes"/>
      <point x="429.051134149639" y="934.0"/>
      <point x="331.23950429866017" y="835.0"/>
      <point x="334.64600995205785" y="770.0" type="qcurve" smooth="yes"/>
      <point x="334.9080488484731" y="765.0" type="line"/>
      <point x="149.90804884847307" y="765.0" type="line"/>
      <point x="149.64600995205785" y="770.0" type="line" smooth="yes"/>
      <point x="143.09503754167764" y="895.0"/>
      <point x="356.2947828157488" y="1082.0"/>
      <point x="546.2947828157488" y="1082.0" type="qcurve" smooth="yes"/>
      <point x="710.2947828157488" y="1082.0"/>
      <point x="889.2650174603934" y="949.0"/>
      <point x="903.3004164651876" y="872.0" type="qcurve"/>
      <point x="919.2126096811104" y="950.0"/>
      <point x="1080.294782815749" y="1082.0"/>
      <point x="1226.294782815749" y="1082.0" type="qcurve" smooth="yes"/>
      <point x="1441.294782815749" y="1082.0"/>
      <point x="1688.0737765735666" y="800.0"/>
      <point x="1700.6516436014965" y="560.0" type="qcurve" smooth="yes"/>
      <point x="1704.6346348270079" y="484.0" type="line"/>
      <point x="895.6346348270077" y="484.0" type="line"/>
      <point x="887.8782834931176" y="632.0" type="line"/>
      <point x="1508.8782834931176" y="632.0" type="line"/>
      <point x="1507.6204967903245" y="656.0" type="line" smooth="yes"/>
      <point x="1501.646009952058" y="770.0"/>
      <point x="1364.2607652667712" y="930.0"/>
      <point x="1231.2607652667712" y="930.0" type="qcurve" smooth="yes"/>
      <point x="1094.2607652667712" y="930.0"/>
      <point x="960.0525156054556" y="705.0"/>
      <point x="968.5949836285914" y="542.0" type="qcurve" smooth="yes"/>
      <point x="970.2720325656487" y="510.0" type="line" smooth="yes"/>
      <point x="978.8145005887845" y="347.0"/>
      <point x="1144.6062509274689" y="122.0"/>
      <point x="1306.6062509274689" y="122.0" type="qcurve" smooth="yes"/>
      <point x="1406.6062509274689" y="122.0"/>
      <point x="1545.9943663505612" y="210.0"/>
      <point x="1587.8498995935788" y="270.0" type="qcurve"/>
      <point x="1712.8286386254676" y="175.0" type="line"/>
      <point x="1666.7592220716958" y="100.0"/>
      <point x="1464.5722333784913" y="-30.0"/>
      <point x="1314.5722333784913" y="-30.0" type="qcurve" smooth="yes"/>
      <point x="1168.5722333784913" y="-30.0"/>
      <point x="930.2832998645263" y="90.0"/>
      <point x="869.8371430127121" y="213.0" type="qcurve"/>
      <point x="834.8116298509789" y="99.0"/>
      <point x="641.0481555856609" y="-20.0"/>
    </contour>
  </outline>
</glyph>
<glyph name="eth" format="2">
  <advance width="1114"/>
  <unicode hex="00F0"/>
  <outline>
    <contour>
      <point x="183.03136246351707" y="1316.0" type="qcurve"/>
      <point x="231.6461177782304" y="1476.0" type="line"/>
      <point x="572.5767012244585" y="1401.0"/>
      <point x="1015.7451918611852" y="978.0"/>
      <point x="1033.8258757138346" y="633.0" type="qcurve"/>
      <point x="1038.9618380835727" y="535.0" type="line"/>
      <point x="1051.8541517872009" y="289.0"/>
      <point x="802.0481555856609" y="-20.0"/>
      <point x="600.0481555856609" y="-20.0" type="qcurve" smooth="yes"/>
      <point x="390.0481555856608" y="-20.0"/>
      <point x="109.11193848999393" y="265.0"/>
      <point x="98.47315929553646" y="468.0" type="qcurve" smooth="yes"/>
      <point x="86.41937006043686" y="698.0"/>
      <point x="326.74519186118516" y="978.0"/>
      <point x="519.7451918611852" y="978.0" type="qcurve" smooth="yes"/>
      <point x="688.7451918611852" y="978.0"/>
      <point x="931.7465733170018" y="749.0"/>
      <point x="938.8216235202124" y="614.0" type="qcurve"/>
      <point x="869.8216235202124" y="614.0" type="line"/>
      <point x="866.3627100875316" y="680.0"/>
      <point x="714.7111743122075" y="826.0"/>
      <point x="571.7111743122075" y="826.0" type="qcurve" smooth="yes"/>
      <point x="425.7111743122075" y="826.0"/>
      <point x="275.87828349311764" y="632.0"/>
      <point x="284.47315929553645" y="468.0" type="qcurve" smooth="yes"/>
      <point x="290.9193161473506" y="345.0"/>
      <point x="455.0821731346385" y="132.0"/>
      <point x="596.0821731346385" y="132.0" type="qcurve" smooth="yes"/>
      <point x="724.0821731346385" y="132.0"/>
      <point x="861.9759761202558" y="363.0"/>
      <point x="852.9618380835726" y="535.0" type="qcurve" smooth="yes"/>
      <point x="847.7210601552684" y="635.0" type="line" smooth="yes"/>
      <point x="831.0029785639782" y="954.0"/>
      <point x="440.49027589619783" y="1250.0"/>
    </contour>
    <contour>
      <point x="906.7169157878188" y="1322.0" type="line"/>
      <point x="337.6531328834857" y="1037.0" type="line"/>
      <point x="265.78771379740726" y="1168.0" type="line"/>
      <point x="833.9039044810233" y="1452.0" type="line"/>
    </contour>
  </outline>
</glyph>
<glyph name="thorn" format="2">
  <advance width="1170"/>
  <unicode hex="00FE"/>
  <outline>
    <contour>
      <point x="393.8016361817454" y="-416.0" type="line"/>
      <point x="207.80163618174538" y="-416.0" type="line"/>
      <point x="109.69427336389123" y="1456.0" type="line"/>
      <point x="295.6942733638912" y="1456.0" type="line"/>
      <point x="323.36558082533725" y="928.0" type="line"/>
    </contour>
    <contour>
      <point x="636.0821731346385" y="132.0" type="qcurve" smooth="yes"/>
      <point x="786.0821731346385" y="132.0"/>
      <point x="914.6572772509354" y="350.0"/>
      <point x="906.2720325656487" y="510.0" type="qcurve" smooth="yes"/>
      <point x="904.5949836285914" y="542.0" type="line" smooth="yes"/>
      <point x="896.2097389433047" y="702.0"/>
      <point x="744.7848430596016" y="920.0"/>
      <point x="594.7848430596016" y="920.0" type="qcurve" smooth="yes"/>
      <point x="453.7848430596016" y="920.0"/>
      <point x="292.41937006043685" y="698.0"/>
      <point x="300.22812917361006" y="549.0" type="qcurve" smooth="yes"/>
      <point x="301.69554699353523" y="521.0" type="line" smooth="yes"/>
      <point x="310.7620928095015" y="348.0"/>
      <point x="500.0821731346385" y="132.0"/>
    </contour>
    <contour>
      <point x="684.0481555856609" y="-20.0" type="qcurve" smooth="yes"/>
      <point x="491.0481555856608" y="-20.0"/>
      <point x="248.11193848999395" y="265.0"/>
      <point x="234.7479547728183" y="520.0" type="qcurve" smooth="yes"/>
      <point x="232.96609027719487" y="554.0" type="line" smooth="yes"/>
      <point x="221.90804884847307" y="765.0"/>
      <point x="422.81886060857926" y="1072.0"/>
      <point x="626.8188606085793" y="1072.0" type="qcurve" smooth="yes"/>
      <point x="826.8188606085793" y="1072.0"/>
      <point x="1082.5411943934919" y="772.0"/>
      <point x="1094.5949836285913" y="542.0" type="qcurve" smooth="yes"/>
      <point x="1096.2720325656487" y="510.0" type="line" smooth="yes"/>
      <point x="1108.3258218007484" y="280.0"/>
      <point x="884.0481555856609" y="-20.0"/>
    </contour>
  </outline>
</glyph>
<glyph name="oe" format="2">
  <advance width="1889"/>
  <unicode hex="0153"/>
  <outline>
    <contour>
      <point x="590.5722333784912" y="-30.0" type="qcurve" smooth="yes"/>
      <point x="394.57223337849126" y="-30.0"/>
      <point x="108.74508403501264" y="272.0"/>
      <point x="96.27203256564871" y="510.0" type="qcurve" smooth="yes"/>
      <point x="94.59498362859138" y="542.0" type="line" smooth="yes"/>
      <point x="82.12193215922744" y="780.0"/>
      <point x="335.34719059503186" y="1081.0"/>
      <point x="550.3471905950319" y="1081.0" type="qcurve" smooth="yes"/>
      <point x="736.3471905950319" y="1081.0"/>
      <point x="946.7324352803186" y="921.0"/>
      <point x="969.6148631408859" y="866.0" type="qcurve"/>
      <point x="986.4703963839033" y="926.0"/>
      <point x="1193.3471905950319" y="1081.0"/>
      <point x="1371.3471905950319" y="1081.0" type="qcurve" smooth="yes"/>
      <point x="1558.3471905950319" y="1081.0"/>
      <point x="1805.0737765735666" y="800.0"/>
      <point x="1817.6516436014965" y="560.0" type="qcurve" smooth="yes"/>
      <point x="1821.6346348270079" y="484.0" type="line"/>
      <point x="1012.6346348270077" y="484.0" type="line"/>
      <point x="1004.8782834931176" y="632.0" type="line"/>
      <point x="1625.8782834931176" y="632.0" type="line"/>
      <point x="1624.6204967903245" y="656.0" type="line" smooth="yes"/>
      <point x="1618.646009952058" y="770.0"/>
      <point x="1481.3131730460543" y="929.0"/>
      <point x="1359.3131730460543" y="929.0" type="qcurve" smooth="yes"/>
      <point x="1211.3131730460543" y="929.0"/>
      <point x="1077.0001078261726" y="706.0"/>
      <point x="1085.5949836285913" y="542.0" type="qcurve" smooth="yes"/>
      <point x="1087.2720325656487" y="510.0" type="line" smooth="yes"/>
      <point x="1095.8669083680675" y="346.0"/>
      <point x="1251.6062509274689" y="122.0"/>
      <point x="1413.6062509274689" y="122.0" type="qcurve" smooth="yes"/>
      <point x="1513.6062509274689" y="122.0"/>
      <point x="1662.9943663505612" y="210.0"/>
      <point x="1704.8498995935788" y="270.0" type="qcurve"/>
      <point x="1829.8286386254676" y="175.0" type="line"/>
      <point x="1783.7592220716958" y="100.0"/>
      <point x="1581.5722333784913" y="-30.0"/>
      <point x="1452.5722333784913" y="-30.0" type="qcurve" smooth="yes"/>
      <point x="1255.5722333784913" y="-30.0"/>
      <point x="1041.2351442788654" y="110.0"/>
      <point x="1007.3045608326373" y="185.0" type="qcurve"/>
      <point x="981.1827364995823" y="111.0"/>
      <point x="785.5722333784912" y="-30.0"/>
    </contour>
    <contour>
      <point x="612.6062509274689" y="122.0" type="qcurve" smooth="yes"/>
      <point x="764.6062509274689" y="122.0"/>
      <point x="906.8669083680676" y="346.0"/>
      <point x="898.2720325656487" y="510.0" type="qcurve" smooth="yes"/>
      <point x="896.5949836285914" y="542.0" type="line" smooth="yes"/>
      <point x="888.0001078261726" y="706.0"/>
      <point x="722.2607652667712" y="930.0"/>
      <point x="570.2607652667712" y="930.0" type="qcurve" smooth="yes"/>
      <point x="418.26076526677116" y="930.0"/>
      <point x="276.0525156054556" y="705.0"/>
      <point x="284.59498362859136" y="542.0" type="qcurve" smooth="yes"/>
      <point x="286.2720325656487" y="510.0" type="line" smooth="yes"/>
      <point x="294.81450058878454" y="347.0"/>
      <point x="460.6062509274689" y="122.0"/>
    </contour>
  </outline>
</glyph>
<glyph name="Schwa" format="2">
  <advance width="1445"/>
  <unicode hex="018F"/>
  <outline>
    <contour>
      <point x="753.5722333784912" y="-30.0" type="qcurve" smooth="yes"/>
      <point x="469.57223337849126" y="-30.0"/>
      <point x="123.70118064297401" y="311.0"/>
      <point x="101.9519522405117" y="726.0" type="qcurve" smooth="yes"/>
      <point x="98.91230104209527" y="784.0" type="line"/>
      <point x="1224.9123010420954" y="784.0" type="line"/>
      <point x="1233.402361285948" y="622.0" type="line"/>
      <point x="746.1403223895328" y="627.0" type="line"/>
      <point x="315.29754572738193" y="624.0" type="line"/>
      <point x="318.2847891465153" y="567.0" type="line" smooth="yes"/>
      <point x="329.5000539130863" y="353.0"/>
      <point x="566.2393964724877" y="129.0"/>
      <point x="753.2393964724877" y="129.0" type="qcurve" smooth="yes"/>
      <point x="943.2393964724877" y="129.0"/>
      <point x="1158.7876059712348" y="462.0"/>
      <point x="1141.7465733170018" y="749.0" type="qcurve" smooth="yes"/>
      <point x="1123.6573850771078" y="1056.0"/>
      <point x="859.0313624635171" y="1316.0"/>
      <point x="673.0313624635171" y="1316.0" type="qcurve" smooth="yes"/>
      <point x="497.0313624635171" y="1316.0"/>
      <point x="323.04124830657804" y="1125.0"/>
      <point x="304.4307451854869" y="984.0" type="qcurve" smooth="yes"/>
      <point x="302.2692696540156" y="968.0" type="line"/>
      <point x="103.26926965401559" y="968.0" type="line"/>
      <point x="104.53556074405302" y="982.0" type="line" smooth="yes"/>
      <point x="125.48177150895341" y="1212.0"/>
      <point x="409.96481664755083" y="1489.0"/>
      <point x="661.9648166475508" y="1489.0" type="qcurve" smooth="yes"/>
      <point x="942.9648166475508" y="1489.0"/>
      <point x="1308.884024968729" y="1128.0"/>
      <point x="1328.2224955241713" y="759.0" type="qcurve" smooth="yes"/>
      <point x="1347.875412755312" y="384.0"/>
      <point x="1049.572233378491" y="-30.0"/>
    </contour>
  </outline>
</glyph>
<glyph name="gravecomb" format="2">
  <unicode hex="0300"/>
  <anchor x="-17.132983805759913" y="1052" name="_top"/>
  <anchor x="-45.80003907358375" y="1599" name="top"/>
  <outline>
    <contour>
      <point x="40" y="1215" type="line"/>
      <point x="-259" y="1490" type="line"/>
      <point x="-122" y="1603" type="line"/>
      <point x="145" y="1294" type="line"/>
    </contour>
  </outline>
</glyph>
<glyph name="acutecomb" format="2">
  <unicode hex="0301"/>
  <anchor x="-17.132983805759913" y="1052" name="_top"/>
  <anchor x="-45.85244685286679" y="1600" name="top"/>
  <outline>
    <contour>
      <point x="-201.1825208472373" y="1301.0" type="line"/>
      <point x="53.571067575019754" y="1611.0" type="line"/>
      <point x="193.2792633232491" y="1483.0" type="line"/>
      <point x="-101.67545182889572" y="1215.0" type="line"/>
    </contour>
  </outline>
</glyph>
<glyph name="macroncomb" format="2">
  <unicode hex="0304"/>
  <anchor x="-17.132983805759913" y="1052" name="_top"/>
  <anchor x="-34.42755096916369" y="1382" name="top"/>
  <outline>
    <contour>
      <point x="279.5724490308363" y="1382.0" type="line"/>
      <point x="287.53843148185865" y="1230.0" type="line"/>
      <point x="-340.46156851814135" y="1230.0" type="line"/>
      <point x="-348.4275509691637" y="1382.0" type="line"/>
    </contour>
  </outline>
</glyph>
<glyph name="brevecomb" format="2">
  <unicode hex="0306"/>
  <anchor x="-17.132983805759913" y="1052" name="_top"/>
  <anchor x="-41.55500895165737" y="1518" name="top"/>
  <outline>
    <contour>
      <point x="194.49739882762566" y="1517.0" type="qcurve"/>
      <point x="298.3274189089099" y="1463.0" type="line"/>
      <point x="268.51578905793104" y="1364.0"/>
      <point x="101.26788819819903" y="1197.0"/>
      <point x="-24.73211180180097" y="1197.0" type="qcurve" smooth="yes"/>
      <point x="-137.73211180180095" y="1197.0"/>
      <point x="-326.8029098113894" y="1351.0"/>
      <point x="-374.77739664965617" y="1465.0" type="qcurve"/>
      <point x="-277.50260117237434" y="1517.0" type="line"/>
      <point x="-239.51535775324095" y="1460.0"/>
      <point x="-112.32698760421982" y="1361.0"/>
      <point x="-33.32698760421981" y="1361.0" type="qcurve" smooth="yes"/>
      <point x="50.67301239578019" y="1361.0"/>
      <point x="161.69427336389123" y="1456.0"/>
    </contour>
  </outline>
</glyph>
<glyph name="hookabovecomb" format="2">
  <unicode hex="0309"/>
  <anchor x="-17.132983805759913" y="1052" name="_top"/>
  <anchor x="-50.67396254690664" y="1692" name="top"/>
  <outline>
    <contour>
      <point x="-95.93749072531094" y="1220.0" type="line"/>
      <point x="-97.98139411734957" y="1259.0" type="line" smooth="yes"/>
      <point x="-100.70659864006774" y="1311.0"/>
      <point x="-45.375143189880646" y="1381.0"/>
      <point x="12.048371238005899" y="1392.0" type="qcurve" smooth="yes"/>
      <point x="67.47188566589243" y="1403.0"/>
      <point x="105.95206006668423" y="1432.0"/>
      <point x="103.80334111607951" y="1473.0" type="qcurve" smooth="yes"/>
      <point x="101.75943772404088" y="1512.0"/>
      <point x="28.87275766985138" y="1548.0"/>
      <point x="-25.12724233014862" y="1548.0" type="qcurve" smooth="yes"/>
      <point x="-89.12724233014862" y="1548.0"/>
      <point x="-186.3453778345252" y="1514.0"/>
      <point x="-208.55926114527958" y="1499.0" type="qcurve"/>
      <point x="-269.5294957899241" y="1632.0" type="line"/>
      <point x="-219.83969027200015" y="1657.0"/>
      <point x="-101.67396254690664" y="1692.0"/>
      <point x="-1.6739625469066368" y="1692.0" type="qcurve" smooth="yes"/>
      <point x="118.32603745309336" y="1692.0"/>
      <point x="261.30052429136015" y="1578.0"/>
      <point x="266.33167110253214" y="1482.0" type="qcurve" smooth="yes"/>
      <point x="271.62485681011935" y="1381.0"/>
      <point x="155.91379032408435" y="1261.0"/>
      <point x="42.43786811691477" y="1251.0" type="qcurve"/>
      <point x="44.06250927468907" y="1220.0" type="line"/>
    </contour>
  </outline>
</glyph>
<glyph name="ringcomb" format="2">
  <unicode hex="030A"/>
  <anchor x="-17.132983805759913" y="1052" name="_top"/>
  <anchor x="-48.31561247916976" y="1647" name="top"/>
  <outline>
    <contour>
      <point x="-250" y="1437" type="qcurve" smooth="yes"/>
      <point x="-250" y="1534"/>
      <point x="-123" y="1658"/>
      <point x="-26" y="1658" type="qcurve" smooth="yes"/>
      <point x="71" y="1658"/>
      <point x="198" y="1534"/>
      <point x="198" y="1437" type="qcurve" smooth="yes"/>
      <point x="198" y="1340"/>
      <point x="71" y="1215"/>
      <point x="-26" y="1215" type="qcurve"/>
      <point x="-123" y="1215"/>
      <point x="-250" y="1340"/>
    </contour>
    <contour>
      <point x="-132" y="1437" type="qcurve" smooth="yes"/>
      <point x="-132" y="1387"/>
      <point x="-75" y="1327"/>
      <point x="-26" y="1327" type="qcurve" smooth="yes"/>
      <point x="26" y="1327"/>
      <point x="80" y="1383"/>
      <point x="80" y="1437" type="qcurve" smooth="yes"/>
      <point x="80" y="1486"/>
      <point x="23" y="1546"/>
      <point x="-26" y="1546" type="qcurve" smooth="yes"/>
      <point x="-78" y="1546"/>
      <point x="-132" y="1490"/>
    </contour>
  </outline>
</glyph>
<glyph name="hungarumlautcomb" format="2">
  <unicode hex="030B"/>
  <anchor x="0" y="1052" name="_top"/>
  <anchor x="0" y="1581" name="top"/>
  <outline>
    <contour>
      <point x="-253" y="1301" type="line"/>
      <point x="-16" y="1581" type="line"/>
      <point x="121" y="1473" type="line"/>
      <point x="-158" y="1215" type="line"/>
    </contour>
    <contour>
      <point x="57" y="1301" type="line"/>
      <point x="294" y="1581" type="line"/>
      <point x="431" y="1473" type="line"/>
      <point x="152" y="1215" type="line"/>
    </contour>
  </outline>
</glyph>
<glyph name="caroncomb" format="2">
  <unicode hex="030C"/>
  <anchor x="-17.132983805759913" y="1052" name="_top"/>
  <anchor x="-42.34112564090299" y="1533" name="top"/>
  <outline>
    <contour>
      <point x="-81.57063627032963" y="1213.0" type="line"/>
      <point x="-344.9742711859217" y="1526.0" type="line"/>
      <point x="-190.9742711859217" y="1526.0" type="line"/>
      <point x="-33.64143427991806" y="1367.0" type="line"/>
      <point x="109.02572881407829" y="1526.0" type="line"/>
      <point x="261.0257288140783" y="1526.0" type="line"/>
      <point x="30.429363729670364" y="1213.0" type="line"/>
    </contour>
  </outline>
</glyph>
<glyph name="dieresisbelowcomb" format="2">
  <unicode hex="0324"/>
  <anchor x="38.0" y="0" name="_bottom"/>
  <anchor x="60.06367507816057" y="-421" name="bottom"/>
  <outline>
    <contour>
      <point x="-292" y="-308" type="qcurve" smooth="yes"/>
      <point x="-292" y="-253"/>
      <point x="-232" y="-194"/>
      <point x="-176" y="-194" type="qcurve" smooth="yes"/>
      <point x="-123" y="-194"/>
      <point x="-60" y="-257"/>
      <point x="-60" y="-308" type="qcurve" smooth="yes"/>
      <point x="-60" y="-362"/>
      <point x="-119" y="-421"/>
      <point x="-176" y="-421" type="qcurve" smooth="yes"/>
      <point x="-229" y="-421"/>
      <point x="-292" y="-359"/>
    </contour>
    <contour>
      <point x="168" y="-308" type="qcurve" smooth="yes"/>
      <point x="168" y="-253"/>
      <point x="228" y="-194"/>
      <point x="284" y="-194" type="qcurve" smooth="yes"/>
      <point x="337" y="-194"/>
      <point x="400" y="-257"/>
      <point x="400" y="-308" type="qcurve" smooth="yes"/>
      <point x="400" y="-362"/>
      <point x="341" y="-421"/>
      <point x="284" y="-421" type="qcurve" smooth="yes"/>
      <point x="231" y="-421"/>
      <point x="168" y="-359"/>
    </contour>
  </outline>
</glyph>
<glyph name="brevebelowcomb" format="2">
  <unicode hex="032E"/>
  <anchor x="38.0" y="0" name="_bottom"/>
  <anchor x="62.26480180804833" y="-463" name="bottom"/>
  <outline>
    <contour>
      <point x="281.49431243747495" y="-143.0" type="qcurve"/>
      <point x="385.3243325187592" y="-197.0" type="line"/>
      <point x="355.51270266778033" y="-296.0"/>
      <point x="188.26480180804833" y="-463.0"/>
      <point x="62.26480180804833" y="-463.0" type="qcurve" smooth="yes"/>
      <point x="-50.73519819195167" y="-463.0"/>
      <point x="-239.8059962015401" y="-309.0"/>
      <point x="-287.7804830398069" y="-195.0" type="qcurve"/>
      <point x="-190.50568756252503" y="-143.0" type="line"/>
      <point x="-152.51844414339166" y="-200.0"/>
      <point x="-25.330073994370522" y="-299.0"/>
      <point x="53.66992600562948" y="-299.0" type="qcurve" smooth="yes"/>
      <point x="137.66992600562946" y="-299.0"/>
      <point x="248.6911869737405" y="-204.0"/>
    </contour>
  </outline>
</glyph>
<glyph name="macronbelowcomb" format="2">
  <unicode hex="0331"/>
  <anchor x="38.0" y="0" name="_bottom"/>
  <anchor x="51.57361483430781" y="-259" name="bottom"/>
  <outline>
    <contour>
      <point x="-244.42638516569218" y="-259.0" type="line"/>
      <point x="-252.6019987338467" y="-103.0" type="line"/>
      <point x="339.3980012661533" y="-103.0" type="line"/>
      <point x="347.5736148343078" y="-259.0" type="line"/>
    </contour>
  </outline>
</glyph>
<glyph name="numeralsign" format="2">
  <advance width="574"/>
  <unicode hex="0374"/>
  <outline>
    <contour>
      <point x="214.7664528292962" y="1073.0" type="line"/>
      <point x="90.19421945080495" y="1103.0" type="line"/>
      <point x="155.45349543558706" y="1556.0" type="line"/>
      <point x="341.44924324196484" y="1537.0" type="line"/>
    </contour>
  </outline>
</glyph>
<glyph name="lownumeralsign" format="2">
  <advance width="574"/>
  <unicode hex="0375"/>
  <outline>
    <contour>
      <point x="284.0637829043331" y="285.0" type="line"/>
      <point x="408.63601628282436" y="255.0" type="line"/>
      <point x="343.37674029804225" y="-198.0" type="line"/>
      <point x="157.38099249166447" y="-179.0" type="line"/>
    </contour>
  </outline>
</glyph>
<glyph name="Lambda" format="2">
  <advance width="1240"/>
  <unicode hex="039B"/>
  <outline>
    <contour>
      <point x="38.0" y="0.0" type="line"/>
      <point x="495.1701955710608" y="1466.0" type="line"/>
      <point x="667.1701955710608" y="1466.0" type="line"/>
      <point x="1278.0" y="0.0" type="line"/>
      <point x="1078.0" y="0.0" type="line"/>
      <point x="640.3514427886541" y="1100.0" type="line" smooth="yes"/>
      <point x="627.6219860723137" y="1133.0"/>
      <point x="605.3727037567651" y="1195.0"/>
      <point x="596.6432470404247" y="1228.0" type="qcurve"/>
      <point x="586.6432470404247" y="1228.0" type="line"/>
      <point x="581.3727037567651" y="1195.0"/>
      <point x="566.6219860723137" y="1133.0"/>
      <point x="556.3514427886541" y="1100.0" type="qcurve" smooth="yes"/>
      <point x="230.0" y="0.0" type="line"/>
    </contour>
  </outline>
</glyph>
<glyph name="theta" format="2">
  <advance width="1143"/>
  <unicode hex="03B8"/>
  <outline>
    <contour>
      <point x="612.5722333784912" y="-30.0" type="qcurve" smooth="yes"/>
      <point x="393.57223337849126" y="-30.0"/>
      <point x="118.11619068361614" y="284.0"/>
      <point x="98.7253123488907" y="654.0" type="qcurve"/>
      <point x="90.96896101500053" y="802.0" type="line"/>
      <point x="72.1021604731055" y="1162.0"/>
      <point x="312.6461177782304" y="1476.0"/>
      <point x="531.6461177782304" y="1476.0" type="qcurve" smooth="yes"/>
      <point x="752.6461177782304" y="1476.0"/>
      <point x="1025.1021604731054" y="1162.0"/>
      <point x="1043.9689610150006" y="802.0" type="qcurve"/>
      <point x="1051.7253123488908" y="654.0" type="line"/>
      <point x="1071.1161906836162" y="284.0"/>
      <point x="833.5722333784912" y="-30.0"/>
    </contour>
    <contour>
      <point x="605.6062509274689" y="122.0" type="qcurve" smooth="yes"/>
      <point x="740.6062509274689" y="122.0"/>
      <point x="876.5524616923693" y="352.0"/>
      <point x="862.8216235202124" y="614.0" type="qcurve"/>
      <point x="851.1870965193771" y="836.0" type="line" smooth="yes"/>
      <point x="837.4562583472201" y="1098.0"/>
      <point x="674.6121002292527" y="1324.0"/>
      <point x="540.6121002292527" y="1324.0" type="qcurve" smooth="yes"/>
      <point x="408.61210022925275" y="1324.0"/>
      <point x="266.45625834722017" y="1098.0"/>
      <point x="280.18709651937706" y="836.0" type="qcurve" smooth="yes"/>
      <point x="291.82162352021237" y="614.0" type="line" smooth="yes"/>
      <point x="305.5524616923693" y="352.0"/>
      <point x="473.6062509274689" y="122.0"/>
    </contour>
    <contour>
      <point x="192.7295645425129" y="673.0" type="line"/>
      <point x="185.287659884321" y="815.0" type="line"/>
      <point x="948.287659884321" y="815.0" type="line"/>
      <point x="955.7295645425129" y="673.0" type="line"/>
    </contour>
  </outline>
</glyph>
<glyph name="lambda" format="2">
  <advance width="961"/>
  <unicode hex="03BB"/>
  <outline>
    <contour>
      <point x="38.0" y="0.0" type="line"/>
      <point x="386.07664731137226" y="1048.0" type="line"/>
      <point x="360.82736499582364" y="1110.0" type="line" smooth="yes"/>
      <point x="314.90528593683996" y="1223.0"/>
      <point x="245.03136246351707" y="1316.0"/>
      <point x="167.03136246351707" y="1316.0" type="qcurve" smooth="yes"/>
      <point x="141.03136246351707" y="1316.0"/>
      <point x="74.39821691849836" y="1309.0"/>
      <point x="48.81747915276269" y="1301.0" type="qcurve"/>
      <point x="40.69427336389123" y="1456.0" type="line"/>
      <point x="68.1701955710608" y="1466.0"/>
      <point x="136.6461177782304" y="1476.0"/>
      <point x="171.6461177782304" y="1476.0" type="qcurve" smooth="yes"/>
      <point x="295.6461177782304" y="1476.0"/>
      <point x="428.7254201750632" y="1360.0"/>
      <point x="474.38546033763174" y="1252.0" type="qcurve" smooth="yes"/>
      <point x="999.0" y="0.0" type="line"/>
      <point x="799.0" y="0.0" type="line"/>
      <point x="543.6162445967025" y="637.0" type="line" smooth="yes"/>
      <point x="520.681408956852" y="693.0"/>
      <point x="501.3273110827374" y="757.0"/>
      <point x="486.6545143393023" y="808.0" type="qcurve"/>
      <point x="480.6545143393023" y="808.0" type="line"/>
      <point x="472.22249552417134" y="759.0"/>
      <point x="454.4151178668146" y="679.0"/>
      <point x="440.6162445967024" y="637.0" type="qcurve" smooth="yes"/>
      <point x="238.0" y="0.0" type="line"/>
    </contour>
  </outline>
</glyph>
<glyph name="finalsigma" format="2">
  <advance width="1048"/>
  <unicode hex="03C2"/>
  <outline>
    <contour>
      <point x="695.2379071904985" y="-348.0" type="line"/>
      <point x="715.4602948884973" y="-295.0"/>
      <point x="741.2195169601931" y="-195.0"/>
      <point x="738.494312437475" y="-143.0" type="qcurve"/>
      <point x="735.4022534597755" y="-84.0"/>
      <point x="671.4674178199251" y="-28.0"/>
      <point x="586.4716700135474" y="-9.0" type="qcurve" smooth="yes"/>
      <point x="537.8951844414339" y="2.0" type="line" smooth="yes"/>
      <point x="334.484426594414" y="48.0"/>
      <point x="107.95896734576702" y="287.0"/>
      <point x="96.53407146206392" y="505.0" type="qcurve" smooth="yes"/>
      <point x="94.59498362859138" y="542.0" type="line" smooth="yes"/>
      <point x="82.54119439349176" y="772.0"/>
      <point x="323.2947828157488" y="1082.0"/>
      <point x="562.2947828157488" y="1082.0" type="qcurve" smooth="yes"/>
      <point x="777.2947828157488" y="1082.0"/>
      <point x="992.4009798301315" y="851.0"/>
      <point x="999.5284378126252" y="715.0" type="qcurve" smooth="yes"/>
      <point x="999.7904767090404" y="710.0" type="line"/>
      <point x="819.7904767090404" y="710.0" type="line"/>
      <point x="819.5284378126252" y="715.0" type="line" smooth="yes"/>
      <point x="815.0737765735666" y="800.0"/>
      <point x="690.2607652667712" y="930.0"/>
      <point x="570.2607652667712" y="930.0" type="qcurve"/>
      <point x="424.26076526677116" y="930.0"/>
      <point x="274.68991334409645" y="731.0"/>
      <point x="284.070905835761" y="552.0" type="qcurve" smooth="yes"/>
      <point x="286.1148092277996" y="513.0" type="line" smooth="yes"/>
      <point x="293.9235683409728" y="364.0"/>
      <point x="426.5708519226747" y="199.0"/>
      <point x="588.5099397561472" y="162.0" type="qcurve" smooth="yes"/>
      <point x="641.1388331075437" y="150.0" type="line" smooth="yes"/>
      <point x="799.0255131617332" y="114.0"/>
      <point x="908.6855533243017" y="6.0"/>
      <point x="913.4022534597755" y="-84.0" type="qcurve"/>
      <point x="916.7039435546071" y="-147.0"/>
      <point x="893.5693626406857" y="-278.0"/>
      <point x="865.2379071904985" y="-348.0" type="qcurve"/>
    </contour>
  </outline>
</glyph>
<glyph name="omega" format="2">
  <advance width="1570"/>
  <unicode hex="03C9"/>
  <anchor x="768.8670161942401" y="1052" name="top"/>
  <outline>
    <contour>
      <point x="521.5722333784913" y="-30.0" type="qcurve" smooth="yes"/>
      <point x="338.57223337849126" y="-30.0"/>
      <point x="121.52269633701385" y="219.0"/>
      <point x="108.21112039912126" y="473.0" type="qcurve"/>
      <point x="97.99160343892811" y="668.0"/>
      <point x="192.47890077114775" y="964.0"/>
      <point x="276.8670161942401" y="1052.0" type="qcurve"/>
      <point x="465.8670161942401" y="1052.0" type="line"/>
      <point x="367.7890952532238" y="939.0"/>
      <point x="289.7210601552685" y="635.0"/>
      <point x="298.3159359576873" y="471.0" type="qcurve"/>
      <point x="307.8541517872009" y="289.0"/>
      <point x="414.39661981033674" y="126.0"/>
      <point x="511.39661981033674" y="126.0" type="qcurve"/>
      <point x="623.3966198103367" y="126.0"/>
      <point x="714.4872973322197" y="296.0"/>
      <point x="708.617626052519" y="408.0" type="qcurve" smooth="yes"/>
      <point x="692.1615833576438" y="722.0" type="line"/>
      <point x="878.1615833576438" y="722.0" type="line"/>
      <point x="894.617626052519" y="408.0" type="line" smooth="yes"/>
      <point x="900.4872973322197" y="296.0"/>
      <point x="1008.3966198103367" y="126.0"/>
      <point x="1121.3966198103367" y="126.0" type="qcurve"/>
      <point x="1218.3966198103367" y="126.0"/>
      <point x="1307.8541517872009" y="289.0"/>
      <point x="1298.3159359576873" y="471.0" type="qcurve"/>
      <point x="1289.7210601552686" y="635.0"/>
      <point x="1178.7890952532239" y="939.0"/>
      <point x="1068.86701619424" y="1052.0" type="qcurve"/>
      <point x="1258.86701619424" y="1052.0" type="line"/>
      <point x="1352.4789007711477" y="964.0"/>
      <point x="1477.9916034389282" y="668.0"/>
      <point x="1488.2111203991212" y="473.0" type="qcurve"/>
      <point x="1501.522696337014" y="219.0"/>
      <point x="1310.5722333784913" y="-30.0"/>
      <point x="1127.5722333784913" y="-30.0" type="qcurve" smooth="yes"/>
      <point x="1017.5722333784912" y="-30.0"/>
      <point x="850.5977465402245" y="84.0"/>
      <point x="802.8895507919951" y="212.0" type="qcurve"/>
      <point x="820.8895507919951" y="212.0" type="line"/>
      <point x="786.5977465402245" y="84.0"/>
      <point x="631.5722333784912" y="-30.0"/>
    </contour>
  </outline>
</glyph>
<glyph name="Nje" format="2">
  <advance width="2026"/>
  <unicode hex="040A"/>
  <outline>
    <contour>
      <point x="208.0" y="0.0" type="line"/>
      <point x="400.0" y="0.0" type="line"/>
      <point x="323.6942733638912" y="1456.0" type="line"/>
      <point x="131.69427336389123" y="1456.0" type="line"/>
    </contour>
    <contour>
      <point x="1034.0" y="0.0" type="line"/>
      <point x="1516.0" y="0.0" type="line" smooth="yes"/>
      <point x="1756.0" y="0.0"/>
      <point x="2001.369725192787" y="241.0"/>
      <point x="1991.0978004533108" y="437.0" type="qcurve" smooth="yes"/>
      <point x="1980.8258757138346" y="633.0"/>
      <point x="1710.4052320237538" y="870.0"/>
      <point x="1470.4052320237538" y="870.0" type="qcurve" smooth="yes"/>
      <point x="1109.4052320237538" y="870.0" type="line"/>
      <point x="1117.6856611504743" y="712.0" type="line"/>
      <point x="1478.6856611504743" y="712.0" type="line" smooth="yes"/>
      <point x="1648.6856611504743" y="712.0"/>
      <point x="1792.9660902771948" y="554.0"/>
      <point x="1799.0978004533108" y="437.0" type="qcurve" smooth="yes"/>
      <point x="1805.2295106294266" y="320.0"/>
      <point x="1677.7195708732795" y="158.0"/>
      <point x="1507.7195708732795" y="158.0" type="qcurve" smooth="yes"/>
      <point x="1217.7195708732795" y="158.0" type="line"/>
      <point x="1149.6942733638912" y="1456.0" type="line"/>
      <point x="957.6942733638912" y="1456.0" type="line"/>
    </contour>
    <contour>
      <point x="272.6856611504743" y="712.0" type="line"/>
      <point x="1085.6856611504743" y="712.0" type="line"/>
      <point x="1077.4052320237538" y="870.0" type="line"/>
      <point x="264.4052320237537" y="870.0" type="line"/>
    </contour>
  </outline>
</glyph>
<glyph name="Be" format="2">
  <advance width="1200"/>
  <unicode hex="0411"/>
  <outline>
    <contour>
      <point x="208.0" y="0.0" type="line"/>
      <point x="131.69427336389123" y="1456.0" type="line"/>
      <point x="1013.6942733638912" y="1456.0" type="line"/>
      <point x="1021.9747024906118" y="1298.0" type="line"/>
      <point x="331.97470249061183" y="1298.0" type="line"/>
      <point x="391.7195708732794" y="158.0" type="line"/>
      <point x="681.7195708732794" y="158.0" type="line" smooth="yes"/>
      <point x="851.7195708732794" y="158.0"/>
      <point x="979.2819184087097" y="319.0"/>
      <point x="973.2026160118769" y="435.0" type="qcurve" smooth="yes"/>
      <point x="967.123313615044" y="551.0"/>
      <point x="822.8952922676065" y="708.0"/>
      <point x="652.8952922676065" y="708.0" type="qcurve" smooth="yes"/>
      <point x="272.89529226760646" y="708.0" type="line"/>
      <point x="264.61486314088586" y="866.0" type="line"/>
      <point x="644.6148631408859" y="866.0" type="line" smooth="yes"/>
      <point x="884.6148631408859" y="866.0"/>
      <point x="1154.9830990516837" y="630.0"/>
      <point x="1165.202616011877" y="435.0" type="qcurve" smooth="yes"/>
      <point x="1175.474540751353" y="239.0"/>
      <point x="930.0" y="0.0"/>
      <point x="690.0" y="0.0" type="qcurve" smooth="yes"/>
    </contour>
  </outline>
</glyph>
<glyph name="Zhe" format="2">
  <advance width="1790"/>
  <unicode hex="0416"/>
  <anchor x="852.6942733638912" y="1456" name="top"/>
  <anchor x="1622.0" y="0" name="cy_descender"/>
  <outline>
    <contour>
      <point x="834.0" y="0.0" type="line"/>
      <point x="757.6942733638912" y="1456.0" type="line"/>
      <point x="945.6942733638912" y="1456.0" type="line"/>
      <point x="1022.0" y="0.0" type="line"/>
    </contour>
    <contour>
      <point x="1620.0" y="0.0" type="line"/>
      <point x="1043.218243330549" y="740.0" type="line"/>
      <point x="1200.8683976500567" y="823.0" type="line"/>
      <point x="1848.0" y="0.0" type="line"/>
    </contour>
    <contour>
      <point x="884.5015431950753" y="830.0" type="line"/>
      <point x="1086.5015431950753" y="830.0" type="line"/>
      <point x="1510.6942733638912" y="1456.0" type="line"/>
      <point x="1727.6942733638912" y="1456.0" type="line"/>
      <point x="1178.729564542513" y="673.0" type="line"/>
      <point x="892.7295645425129" y="673.0" type="line"/>
    </contour>
    <contour>
      <point x="18.0" y="0.0" type="line"/>
      <point x="578.8683976500566" y="823.0" type="line"/>
      <point x="737.2182433305491" y="740.0" type="line"/>
      <point x="238.0" y="0.0" type="line"/>
    </contour>
    <contour>
      <point x="884.5015431950753" y="830.0" type="line"/>
      <point x="892.7295645425129" y="673.0" type="line"/>
      <point x="603.7295645425129" y="673.0" type="line"/>
      <point x="-26.305726636108773" y="1456.0" type="line"/>
      <point x="192.69427336389123" y="1456.0" type="line"/>
      <point x="682.5015431950753" y="830.0" type="line"/>
    </contour>
  </outline>
</glyph>
<glyph name="Ze" format="2">
  <advance width="1260"/>
  <unicode hex="0417"/>
  <anchor x="686.0" y="0" name="bottom"/>
  <outline>
    <contour>
      <point x="669.9773575760724" y="134.0" type="qcurve" smooth="yes"/>
      <point x="842.9773575760724" y="134.0"/>
      <point x="992.854151787201" y="289.0"/>
      <point x="985.9887327011224" y="420.0" type="qcurve" smooth="yes"/>
      <point x="979.6997991871575" y="540.0"/>
      <point x="832.3627100875316" y="680.0"/>
      <point x="682.3627100875316" y="680.0" type="qcurve" smooth="yes"/>
      <point x="450.3627100875316" y="680.0" type="line"/>
      <point x="442.1870965193771" y="836.0" type="line"/>
      <point x="644.1870965193771" y="836.0" type="line" smooth="yes"/>
      <point x="794.1870965193771" y="836.0"/>
      <point x="919.5496736696653" y="962.6495726496"/>
      <point x="913.6616372707301" y="1075.0" type="qcurve" smooth="yes"/>
      <point x="907.4461162412373" y="1193.5992063492"/>
      <point x="754.7169157878188" y="1322.0"/>
      <point x="595.7169157878188" y="1322.0" type="qcurve" smooth="yes"/>
      <point x="436.71691578781883" y="1322.0"/>
      <point x="271.31604378385987" y="1177.0"/>
      <point x="279.43924957273134" y="1022.0" type="qcurve" smooth="yes"/>
      <point x="280.06814292412787" y="1010.0" type="line"/>
      <point x="88.06814292412784" y="1010.0" type="line"/>
      <point x="87.54406513129743" y="1020.0" type="line" smooth="yes"/>
      <point x="77.01010149540603" y="1221.0"/>
      <point x="325.12203998539997" y="1486.0"/>
      <point x="585.1220399854" y="1486.0" type="qcurve" smooth="yes"/>
      <point x="815.1220399854" y="1486.0"/>
      <point x="1092.5293934814376" y="1287.4158653846"/>
      <point x="1103.6616372707301" y="1075.0" type="qcurve" smooth="yes"/>
      <point x="1110.0546922004899" y="953.0132450331"/>
      <point x="996.2390965778472" y="800.0598965509"/>
      <point x="907.7508255106239" y="768.0" type="qcurve"/>
      <point x="907.9604566277561" y="764.0" type="line"/>
      <point x="1019.6375055648134" y="732.0"/>
      <point x="1168.6516436014965" y="560.0"/>
      <point x="1175.9887327011224" y="420.0" type="qcurve" smooth="yes"/>
      <point x="1187.2039974676934" y="206.0"/>
      <point x="914.5722333784912" y="-30.0"/>
      <point x="678.5722333784912" y="-30.0" type="qcurve" smooth="yes"/>
      <point x="428.57223337849126" y="-30.0"/>
      <point x="111.30881302625949" y="204.0"/>
      <point x="98.10205264693296" y="456.0" type="qcurve" smooth="yes"/>
      <point x="97.57797485410255" y="466.0" type="line"/>
      <point x="289.57797485410254" y="466.0" type="line"/>
      <point x="290.102052646933" y="456.0" type="line" smooth="yes"/>
      <point x="298.958967345767" y="287.0"/>
      <point x="486.9773575760724" y="134.0"/>
    </contour>
  </outline>
</glyph>
<glyph name="Ucyr" format="2">
  <advance width="1238"/>
  <unicode hex="0423"/>
  <anchor x="596.6942733638912" y="1456" name="top"/>
  <outline>
    <contour>
      <point x="181.82438643184548" y="156.0" type="line"/>
      <point x="208.24364866610983" y="148.0"/>
      <point x="272.7677264589403" y="138.0"/>
      <point x="302.7677264589402" y="138.0" type="qcurve" smooth="yes"/>
      <point x="398.7677264589402" y="138.0"/>
      <point x="512.1034341027496" y="227.0"/>
      <point x="573.133199458105" y="360.0" type="qcurve"/>
      <point x="573.133199458105" y="360.0" type="line"/>
      <point x="-23.305726636108773" y="1456.0" type="line"/>
      <point x="194.69427336389123" y="1456.0" type="line"/>
      <point x="580.2663989162099" y="720.0" type="line" smooth="yes"/>
      <point x="607.9916034389281" y="668.0"/>
      <point x="636.7692157409293" y="615.0"/>
      <point x="654.6558957951188" y="579.0" type="qcurve"/>
      <point x="660.6558957951188" y="579.0" type="line"/>
      <point x="673.7692157409293" y="615.0"/>
      <point x="692.0440112182112" y="667.0"/>
      <point x="712.2663989162099" y="720.0" type="qcurve" smooth="yes"/>
      <point x="988.6942733638912" y="1456.0" type="line"/>
      <point x="1184.6942733638912" y="1456.0" type="line"/>
      <point x="773.3513349624816" y="394.0" type="line" smooth="yes"/>
      <point x="676.453279783242" y="144.0"/>
      <point x="488.57223337849126" y="-30.0"/>
      <point x="340.57223337849126" y="-30.0" type="qcurve" smooth="yes"/>
      <point x="281.57223337849126" y="-30.0"/>
      <point x="219.04815558566082" y="-20.0"/>
      <point x="190.5240777928304" y="-10.0" type="qcurve"/>
    </contour>
  </outline>
</glyph>
<glyph name="Che" format="2">
  <advance width="1388"/>
  <unicode hex="0427"/>
  <guideline x="1122.1658355512661" y="741" angle="86.99999999999997" identifier="nfCxFSb4p1"/>
  <anchor x="1161.0" y="0" name="cy_descender"/>
  <outline>
    <contour>
      <point x="315.9151717799009" y="1032.0" type="line" smooth="yes"/>
      <point x="325.24375649228233" y="854.0"/>
      <point x="494.5326900062474" y="734.0"/>
      <point x="692.5326900062473" y="734.0" type="qcurve" smooth="yes"/>
      <point x="811.2559458202473" y="734.0"/>
      <point x="1020.7048077359946" y="754.0467721534"/>
      <point x="1119.3839710556426" y="775.0" type="qcurve"/>
      <point x="1127.6644001823634" y="617.0" type="line"/>
      <point x="995.1080597112865" y="595.0481391606"/>
      <point x="810.5322202565679" y="576.0"/>
      <point x="685.8131191329679" y="576.0" type="qcurve" smooth="yes"/>
      <point x="374.8131191329679" y="576.0"/>
      <point x="135.7069221185853" y="807.0"/>
      <point x="123.7579484420518" y="1035.0" type="qcurve" smooth="yes"/>
      <point x="101.69427336389123" y="1456.0" type="line"/>
      <point x="293.6942733638912" y="1456.0" type="line"/>
    </contour>
    <contour>
      <point x="1179.6942733638912" y="1456.0" type="line"/>
      <point x="1256.0" y="0.0" type="line"/>
      <point x="1064.0" y="0.0" type="line"/>
      <point x="987.6942733638912" y="1456.0" type="line"/>
    </contour>
  </outline>
</glyph>
<glyph name="Hard" format="2">
  <advance width="1329"/>
  <unicode hex="042A"/>
  <outline>
    <contour>
      <point x="337.0" y="0.0" type="line"/>
      <point x="268.97470249061183" y="1298.0" type="line"/>
      <point x="-6.0252975093881815" y="1298.0" type="line"/>
      <point x="-14.305726636108773" y="1456.0" type="line"/>
      <point x="452.6942733638912" y="1456.0" type="line"/>
      <point x="520.7195708732794" y="158.0" type="line"/>
      <point x="810.7195708732794" y="158.0" type="line" smooth="yes"/>
      <point x="980.7195708732794" y="158.0"/>
      <point x="1107.9674717330115" y="325.0"/>
      <point x="1101.6785382190465" y="445.0" type="qcurve" smooth="yes"/>
      <point x="1095.3896047050814" y="565.0"/>
      <point x="950.8471366819456" y="728.0"/>
      <point x="780.8471366819456" y="728.0" type="qcurve" smooth="yes"/>
      <point x="407.8471366819456" y="728.0" type="line"/>
      <point x="399.56670755522504" y="886.0" type="line"/>
      <point x="772.566707555225" y="886.0" type="line" smooth="yes"/>
      <point x="1012.566707555225" y="886.0"/>
      <point x="1283.1969823624381" y="645.0"/>
      <point x="1293.6785382190465" y="445.0" type="qcurve" smooth="yes"/>
      <point x="1304.1600940756548" y="245.0"/>
      <point x="1059.0" y="0.0"/>
      <point x="819.0" y="0.0" type="qcurve" smooth="yes"/>
    </contour>
  </outline>
</glyph>
<glyph name="be" format="2">
  <advance width="1172"/>
  <unicode hex="0431"/>
  <outline>
    <contour>
      <point x="295.6431392142522" y="522.0" type="qcurve" smooth="yes"/>
      <point x="297.32018815130954" y="490.0" type="line" smooth="yes"/>
      <point x="305.443393940181" y="335.0"/>
      <point x="470.6062509274689" y="122.0"/>
      <point x="622.6062509274689" y="122.0" type="qcurve" smooth="yes"/>
      <point x="774.6062509274689" y="122.0"/>
      <point x="917.4433939401811" y="335.0"/>
      <point x="909.3201881513096" y="490.0" type="qcurve" smooth="yes"/>
      <point x="907.6431392142522" y="522.0" type="line" smooth="yes"/>
      <point x="899.5199334253807" y="677.0"/>
      <point x="734.3570764380928" y="890.0"/>
      <point x="582.3570764380928" y="890.0" type="qcurve" smooth="yes"/>
      <point x="430.35707643809286" y="890.0"/>
      <point x="287.5199334253807" y="677.0"/>
    </contour>
    <contour>
      <point x="620.3910939870705" y="1042.0" type="qcurve" smooth="yes"/>
      <point x="829.3910939870705" y="1042.0"/>
      <point x="1085.956204434134" y="745.0"/>
      <point x="1097.6431392142522" y="522.0" type="qcurve" smooth="yes"/>
      <point x="1099.3201881513096" y="490.0" type="line" smooth="yes"/>
      <point x="1111.321569607126" y="261.0"/>
      <point x="856.5722333784912" y="-30.0"/>
      <point x="630.5722333784912" y="-30.0" type="qcurve" smooth="yes"/>
      <point x="396.57223337849126" y="-30.0"/>
      <point x="119.21675404856002" y="263.0"/>
      <point x="101.29329353375974" y="605.0" type="qcurve" smooth="yes"/>
      <point x="99.93069127240065" y="631.0" type="line" smooth="yes"/>
      <point x="80.6446284962413" y="999.0"/>
      <point x="306.97895468423405" y="1317.0"/>
      <point x="633.358565720082" y="1367.0" type="qcurve" smooth="yes"/>
      <point x="803.9435556794398" y="1394.0"/>
      <point x="855.9520600666842" y="1432.0"/>
      <point x="858.6942733638912" y="1456.0" type="qcurve"/>
      <point x="1022.6942733638912" y="1456.0" type="line"/>
      <point x="1017.1970901886106" y="1351.0"/>
      <point x="876.6432470404247" y="1228.0"/>
      <point x="663.1630726396329" y="1199.0" type="qcurve" smooth="yes"/>
      <point x="409.89252935597335" y="1166.0"/>
      <point x="239.7878032219743" y="995.5959757812"/>
      <point x="233.02136879428355" y="801.0" type="qcurve"/>
      <point x="244.02136879428355" y="801.0" type="line"/>
      <point x="290.1516975145829" y="913.0"/>
      <point x="483.3910939870705" y="1042.0"/>
    </contour>
  </outline>
</glyph>
<glyph name="zhe" format="2">
  <advance width="1400"/>
  <unicode hex="0436"/>
  <anchor x="683.8670161942401" y="1052" name="top"/>
  <anchor x="1263.0" y="0" name="cy_descender"/>
  <outline>
    <contour>
      <point x="828.0" y="0.0" type="line"/>
      <point x="648.0" y="0.0" type="line"/>
      <point x="592.8670161942401" y="1052.0" type="line"/>
      <point x="772.8670161942401" y="1052.0" type="line"/>
    </contour>
    <contour>
      <point x="1253.0" y="0.0" type="line"/>
      <point x="872.3768481242148" y="508.0" type="line"/>
      <point x="987.7168079616463" y="616.0" type="line"/>
      <point x="1458.0" y="0.0" type="line"/>
    </contour>
    <contour>
      <point x="706.0312546373445" y="610.0" type="line"/>
      <point x="885.0312546373445" y="610.0" type="line"/>
      <point x="1166.86701619424" y="1052.0" type="line"/>
      <point x="1372.86701619424" y="1052.0" type="line"/>
      <point x="991.6303826333856" y="465.0" type="line"/>
      <point x="713.6303826333856" y="465.0" type="line"/>
    </contour>
    <contour>
      <point x="223.0" y="0.0" type="line"/>
      <point x="18.0" y="0.0" type="line"/>
      <point x="423.7168079616463" y="616.0" type="line"/>
      <point x="550.3768481242148" y="508.0" type="line"/>
    </contour>
    <contour>
      <point x="706.0312546373445" y="610.0" type="line"/>
      <point x="713.6303826333856" y="465.0" type="line"/>
      <point x="435.6303826333856" y="465.0" type="line"/>
      <point x="-7.132983805759913" y="1052.0" type="line"/>
      <point x="198.86701619424008" y="1052.0" type="line"/>
      <point x="527.0312546373445" y="610.0" type="line"/>
    </contour>
  </outline>
</glyph>
<glyph name="lje" format="2">
  <advance width="1655"/>
  <unicode hex="0459"/>
  <outline>
    <contour>
      <point x="48.20963111713217" y="-4.0" type="qcurve"/>
      <point x="40.03401754897766" y="152.0" type="line"/>
      <point x="57.400872003958945" y="145.0"/>
      <point x="94.7153186796572" y="139.0"/>
      <point x="116.7153186796572" y="139.0" type="qcurve" smooth="yes"/>
      <point x="195.7153186796572" y="139.0"/>
      <point x="239.22525843580445" y="301.0"/>
      <point x="236.95758588995045" y="516.0" type="qcurve" smooth="yes"/>
      <point x="231.86701619424008" y="1052.0" type="line"/>
      <point x="923.8670161942401" y="1052.0" type="line"/>
      <point x="971.400872003959" y="145.0" type="line"/>
      <point x="1213.400872003959" y="145.0" type="line" smooth="yes"/>
      <point x="1338.400872003959" y="145.0"/>
      <point x="1433.3739773864093" y="260.0"/>
      <point x="1428.7620928095014" y="348.0" type="qcurve" smooth="yes"/>
      <point x="1424.202616011877" y="435.0"/>
      <point x="1317.3329447321762" y="547.0"/>
      <point x="1192.3329447321762" y="547.0" type="qcurve" smooth="yes"/>
      <point x="860.3329447321762" y="547.0" type="line"/>
      <point x="852.7338167361352" y="692.0" type="line"/>
      <point x="1184.7338167361352" y="692.0" type="line" smooth="yes"/>
      <point x="1382.7338167361352" y="692.0"/>
      <point x="1606.481663682781" y="506.0"/>
      <point x="1614.7620928095014" y="348.0" type="qcurve" smooth="yes"/>
      <point x="1623.042521936222" y="190.0"/>
      <point x="1419.0" y="0.0"/>
      <point x="1221.0" y="0.0" type="qcurve" smooth="yes"/>
      <point x="793.0" y="0.0" type="line"/>
      <point x="745.4661441902812" y="907.0" type="line"/>
      <point x="404.4661441902811" y="907.0" type="line"/>
      <point x="408.32018815130954" y="490.0" type="line" smooth="yes"/>
      <point x="410.6275118955799" y="217.0"/>
      <point x="311.1529711442269" y="-22.0"/>
      <point x="159.1529711442269" y="-22.0" type="qcurve" smooth="yes"/>
      <point x="125.15297114422692" y="-22.0"/>
      <point x="67.68130113067954" y="-13.0"/>
    </contour>
  </outline>
</glyph>
<glyph name="nje" format="2">
  <advance width="1701"/>
  <unicode hex="045A"/>
  <outline>
    <contour>
      <point x="186.0" y="0.0" type="line"/>
      <point x="130.86701619424008" y="1052.0" type="line"/>
      <point x="316.8670161942401" y="1052.0" type="line"/>
      <point x="372.0" y="0.0" type="line"/>
    </contour>
    <contour>
      <point x="254.48591587640308" y="525.0" type="line"/>
      <point x="246.88678788036202" y="670.0" type="line"/>
      <point x="893.886787880362" y="670.0" type="line"/>
      <point x="901.485915876403" y="525.0" type="line"/>
    </contour>
    <contour>
      <point x="839.0" y="0.0" type="line"/>
      <point x="783.8670161942401" y="1052.0" type="line"/>
      <point x="969.8670161942401" y="1052.0" type="line"/>
      <point x="1017.400872003959" y="145.0" type="line"/>
      <point x="1259.400872003959" y="145.0" type="line" smooth="yes"/>
      <point x="1384.400872003959" y="145.0"/>
      <point x="1479.6588022738172" y="254.5652173913"/>
      <point x="1475.338578381615" y="337.0" type="qcurve" smooth="yes"/>
      <point x="1471.0690912960213" y="418.4666666667"/>
      <point x="1364.4859158764032" y="525.0"/>
      <point x="1239.4859158764032" y="525.0" type="qcurve" smooth="yes"/>
      <point x="927.485915876403" y="525.0" type="line"/>
      <point x="919.886787880362" y="670.0" type="line"/>
      <point x="1231.8867878803621" y="670.0" type="line" smooth="yes"/>
      <point x="1429.8867878803621" y="670.0"/>
      <point x="1653.2677803720264" y="491.0"/>
      <point x="1661.338578381615" y="337.0" type="qcurve" smooth="yes"/>
      <point x="1669.4093763912033" y="183.0"/>
      <point x="1465.0" y="0.0"/>
      <point x="1267.0" y="0.0" type="qcurve" smooth="yes"/>
    </contour>
  </outline>
</glyph>
<glyph name="dzhe" format="2">
  <advance width="1128"/>
  <unicode hex="045F"/>
  <outline>
    <contour>
      <point x="186.0" y="0.0" type="line"/>
      <point x="130.86701619424008" y="1052.0" type="line"/>
      <point x="316.8670161942401" y="1052.0" type="line"/>
      <point x="364.40087200395897" y="145.0" type="line"/>
      <point x="824.400872003959" y="145.0" type="line"/>
      <point x="776.8670161942401" y="1052.0" type="line"/>
      <point x="962.8670161942401" y="1052.0" type="line"/>
      <point x="1018.0" y="0.0" type="line"/>
    </contour>
    <contour>
      <point x="532.1501004064212" y="-270.0" type="line"/>
      <point x="514.3314554501871" y="70.0" type="line"/>
      <point x="682.331455450187" y="70.0" type="line"/>
      <point x="700.1501004064213" y="-270.0" type="line"/>
    </contour>
  </outline>
</glyph>
<glyph name="Germandbls" format="2">
  <advance width="1449"/>
  <unicode hex="1E9E"/>
  <outline>
    <contour>
      <point x="161.9151717799009" y="1032.0" type="line" smooth="yes"/>
      <point x="151.38120814400952" y="1233.0"/>
      <point x="359.6461177782304" y="1476.0"/>
      <point x="571.6461177782304" y="1476.0" type="qcurve" smooth="yes"/>
      <point x="797.6461177782304" y="1476.0"/>
      <point x="988.1885858013662" y="1313.0"/>
      <point x="993.5865870675195" y="1210.0" type="qcurve" smooth="yes"/>
      <point x="998.6701416579746" y="1113.0"/>
      <point x="881.8018518340904" y="996.0"/>
      <point x="824.1077941225443" y="952.0" type="qcurve" smooth="yes"/>
      <point x="775.0468819560168" y="915.0"/>
      <point x="703.3485720508485" y="852.0"/>
      <point x="704.4491354157923" y="831.0" type="qcurve" smooth="yes"/>
      <point x="705.7069221185853" y="807.0"/>
      <point x="800.9080488484731" y="765.0"/>
      <point x="994.524185619003" y="696.0" type="qcurve" smooth="yes"/>
      <point x="1191.1927301688158" y="626.0"/>
      <point x="1381.9490815027061" y="478.0"/>
      <point x="1389.390986160898" y="336.0" type="qcurve" smooth="yes"/>
      <point x="1397.042521936222" y="190.0"/>
      <point x="1165.5722333784913" y="-30.0"/>
      <point x="952.5722333784912" y="-30.0" type="qcurve" smooth="yes"/>
      <point x="739.5722333784912" y="-30.0"/>
      <point x="495.03401754897766" y="152.0"/>
      <point x="485.2861706023319" y="338.0" type="qcurve" smooth="yes"/>
      <point x="484.6572772509354" y="350.0" type="line"/>
      <point x="677.6572772509354" y="350.0" type="line"/>
      <point x="678.2861706023319" y="338.0" type="line" smooth="yes"/>
      <point x="683.5269485306361" y="238.0"/>
      <point x="823.9249497967894" y="135.0"/>
      <point x="952.9249497967894" y="135.0" type="qcurve" smooth="yes"/>
      <point x="1064.9249497967894" y="135.0"/>
      <point x="1197.369725192787" y="241.0"/>
      <point x="1192.7054328365962" y="330.0" type="qcurve" smooth="yes"/>
      <point x="1188.0411404804056" y="419.0"/>
      <point x="1052.4774114891586" y="487.0"/>
      <point x="878.1757213943271" y="550.0" type="qcurve" smooth="yes"/>
      <point x="645.7734679345515" y="634.0"/>
      <point x="523.9519522405117" y="726.0"/>
      <point x="519.8641454564345" y="804.0" type="qcurve" smooth="yes"/>
      <point x="516.4052320237537" y="870.0"/>
      <point x="590.0029785639782" y="954.0"/>
      <point x="662.9633273655618" y="1012.0" type="qcurve" smooth="yes"/>
      <point x="741.7140450500132" y="1074.0"/>
      <point x="801.9406849416341" y="1146.0"/>
      <point x="799.3727037567651" y="1195.0" type="qcurve" smooth="yes"/>
      <point x="796.4902758961978" y="1250.0"/>
      <point x="691.1361780220832" y="1314.0"/>
      <point x="586.1361780220832" y="1314.0" type="qcurve" smooth="yes"/>
      <point x="465.13617802208313" y="1314.0"/>
      <point x="346.99734491453944" y="1164.0"/>
      <point x="355.48740515839216" y="1002.0" type="qcurve" smooth="yes"/>
      <point x="389.3952383545202" y="355.0" type="line" smooth="yes"/>
      <point x="398.3569686119203" y="184.0"/>
      <point x="241.83852446852868" y="-16.0"/>
      <point x="106.83852446852868" y="-16.0" type="qcurve" smooth="yes"/>
      <point x="93.83852446852868" y="-16.0"/>
      <point x="66.73370890996259" y="-14.0"/>
      <point x="53.6288933513965" y="-12.0" type="qcurve"/>
      <point x="41.98586196331682" y="172.0" type="line"/>
      <point x="51.14308530116595" y="169.0"/>
      <point x="70.24790085973203" y="167.0"/>
      <point x="79.24790085973203" y="167.0" type="qcurve" smooth="yes"/>
      <point x="139.24790085973203" y="167.0"/>
      <point x="202.164346269277" y="264.0"/>
      <point x="197.3952383545202" y="355.0" type="qcurve" smooth="yes"/>
    </contour>
  </outline>
</glyph>
<glyph name="commercialMinusSign" format="2">
  <advance width="889"/>
  <unicode hex="2052"/>
  <outline>
    <contour>
      <point x="99.10481555856609" y="-2.0" type="line"/>
      <point x="605.3359232961543" y="1501.0" type="line"/>
      <point x="775.5894578053251" y="1458.0" type="line"/>
      <point x="269.35835006773686" y="-45.0" type="line"/>
    </contour>
    <contour>
      <point x="535.2436486661098" y="148.0" type="qcurve" smooth="yes"/>
      <point x="531.8371430127121" y="213.0"/>
      <point x="617.753588422257" y="310.0"/>
      <point x="688.753588422257" y="310.0" type="qcurve" smooth="yes"/>
      <point x="759.753588422257" y="310.0"/>
      <point x="855.8371430127121" y="213.0"/>
      <point x="859.2436486661098" y="148.0" type="qcurve" smooth="yes"/>
      <point x="862.5977465402245" y="84.0"/>
      <point x="776.6813011306796" y="-13.0"/>
      <point x="705.6813011306796" y="-13.0" type="qcurve" smooth="yes"/>
      <point x="634.6813011306796" y="-13.0"/>
      <point x="538.5977465402245" y="84.0"/>
    </contour>
    <contour>
      <point x="29.66025581491357" y="1304.0" type="qcurve" smooth="yes"/>
      <point x="26.253750161515853" y="1369.0"/>
      <point x="112.1701955710608" y="1466.0"/>
      <point x="183.1701955710608" y="1466.0" type="qcurve" smooth="yes"/>
      <point x="254.1701955710608" y="1466.0"/>
      <point x="350.2537501615159" y="1369.0"/>
      <point x="353.66025581491357" y="1304.0" type="qcurve" smooth="yes"/>
      <point x="357.0143536890282" y="1240.0"/>
      <point x="271.09790827948325" y="1143.0"/>
      <point x="200.09790827948328" y="1143.0" type="qcurve" smooth="yes"/>
      <point x="129.09790827948328" y="1143.0"/>
      <point x="33.01435368902824" y="1240.0"/>
    </contour>
  </outline>
</glyph>
<glyph name="foursuperior" format="2">
  <advance width="751"/>
  <unicode hex="2074"/>
  <outline>
    <contour>
      <point x="436" y="697" type="line"/>
      <point x="424" y="928" type="line"/>
      <point x="423" y="952" type="line"/>
      <point x="399" y="1409" type="line"/>
      <point x="395" y="1496" type="line"/>
      <point x="552" y="1496" type="line"/>
      <point x="593" y="697" type="line"/>
    </contour>
    <contour>
      <point x="46" y="880" type="line"/>
      <point x="41" y="982" type="line"/>
      <point x="395" y="1496" type="line"/>
      <point x="552" y="1496" type="line"/>
      <point x="561" y="1322" type="line"/>
      <point x="404" y="1322" type="line"/>
      <point x="197" y="1010" type="line"/>
      <point x="493" y="1010" type="line"/>
      <point x="517" y="1010" type="line"/>
      <point x="685" y="1010" type="line"/>
      <point x="692" y="880" type="line"/>
    </contour>
  </outline>
</glyph>
<glyph name="lira" format="2">
  <advance width="1024"/>
  <unicode hex="20A4"/>
  <outline>
    <contour>
      <point x="1066.0" y="0.0" type="line"/>
      <point x="74.0" y="0.0" type="line"/>
      <point x="65.61475531471332" y="160.0" type="line"/>
      <point x="121.61475531471332" y="160.0" type="line" smooth="yes"/>
      <point x="213.6147553147133" y="160.0"/>
      <point x="288.01987951229444" y="324.0"/>
      <point x="266.5255670748195" y="467.0" type="qcurve" smooth="yes"/>
      <point x="181.54831732491962" y="1039.0" type="line" smooth="yes"/>
      <point x="153.64324704042474" y="1228.0"/>
      <point x="340.6461177782304" y="1476.0"/>
      <point x="541.6461177782304" y="1476.0" type="qcurve" smooth="yes"/>
      <point x="731.6461177782304" y="1476.0"/>
      <point x="955.442120310537" y="1270.0"/>
      <point x="964.194219450805" y="1103.0" type="qcurve" smooth="yes"/>
      <point x="965.0327439193336" y="1087.0" type="line"/>
      <point x="773.0327439193336" y="1087.0" type="line"/>
      <point x="772.194219450805" y="1103.0" type="line" smooth="yes"/>
      <point x="759.1673248332552" y="1218.0"/>
      <point x="643.874139125668" y="1319.0"/>
      <point x="551.874139125668" y="1319.0" type="qcurve" smooth="yes"/>
      <point x="449.87413912566797" y="1319.0"/>
      <point x="345.10216047310547" y="1162.0"/>
      <point x="363.54831732491965" y="1039.0" type="qcurve" smooth="yes"/>
      <point x="442.3768481242148" y="508.0" type="line" smooth="yes"/>
      <point x="462.50430610670844" y="372.0"/>
      <point x="419.15158968841035" y="207.0"/>
      <point x="351.30030863901504" y="166.0" type="qcurve"/>
      <point x="1057.300308639015" y="166.0" type="line"/>
    </contour>
    <contour>
      <point x="819.412247129009" y="431.0" type="line"/>
      <point x="57.412247129009" y="431.0" type="line"/>
      <point x="49.07941022300537" y="590.0" type="line"/>
      <point x="811.0794102230054" y="590.0" type="line"/>
    </contour>
    <contour>
      <point x="802.3797188620205" y="756.0" type="line"/>
      <point x="40.37971886202044" y="756.0" type="line"/>
      <point x="31.99447417673376" y="916.0" type="line"/>
      <point x="793.9944741767338" y="916.0" type="line"/>
    </contour>
  </outline>
</glyph>
<glyph name="naira" format="2">
  <advance width="1024"/>
  <unicode hex="20A6"/>
  <outline>
    <contour>
      <point x="880.6942733638912" y="1456.0" type="line"/>
      <point x="957.0" y="0.0" type="line"/>
      <point x="776.0" y="0.0" type="line"/>
      <point x="245.15031605876632" y="1142.0" type="line"/>
      <point x="217.3330525583487" y="1253.0" type="line"/>
      <point x="205.3330525583487" y="1253.0" type="line"/>
      <point x="225.04124830657804" y="1125.0" type="line"/>
      <point x="284.0" y="0.0" type="line"/>
      <point x="134.0" y="0.0" type="line"/>
      <point x="57.69427336389123" y="1456.0" type="line"/>
      <point x="243.69427336389123" y="1456.0" type="line"/>
      <point x="755.8145005887845" y="347.0" type="line"/>
      <point x="791.1034341027495" y="227.0" type="line"/>
      <point x="804.9462107649003" y="230.0" type="line"/>
      <point x="788.6048694716524" y="351.0" type="line"/>
      <point x="730.6942733638912" y="1456.0" type="line"/>
    </contour>
    <contour>
      <point x="551.7819723217959" y="672.0" type="line"/>
      <point x="842.7819723217959" y="672.0" type="line"/>
      <point x="842.5199334253807" y="677.0" type="line"/>
      <point x="1034.4151178668146" y="679.0" type="line"/>
      <point x="1041.5949836285913" y="542.0" type="line"/>
      <point x="849.6997991871575" y="540.0" type="line"/>
      <point x="849.1757213943271" y="550.0" type="line"/>
      <point x="558.1757213943271" y="550.0" type="line"/>
    </contour>
    <contour>
      <point x="1.6997991871574598" y="540.0" type="line"/>
      <point x="-5.480066574619258" y="677.0" type="line"/>
      <point x="176.51993342538074" y="677.0" type="line"/>
      <point x="176.78197232179593" y="672.0" type="line"/>
      <point x="551.7819723217959" y="672.0" type="line"/>
      <point x="558.1757213943271" y="550.0" type="line"/>
      <point x="183.17572139432704" y="550.0" type="line"/>
      <point x="183.69979918715745" y="540.0" type="line"/>
    </contour>
    <contour>
      <point x="522.7975996404682" y="977.0" type="line"/>
      <point x="826.7975996404682" y="977.0" type="line"/>
      <point x="826.2735218476378" y="987.0" type="line"/>
      <point x="1018.1687062890717" y="989.0" type="line"/>
      <point x="1025.3485720508484" y="852.0" type="line"/>
      <point x="833.4533876094146" y="850.0" type="line"/>
      <point x="833.1913487129993" y="855.0" type="line"/>
      <point x="529.1913487129993" y="855.0" type="line"/>
    </contour>
    <contour>
      <point x="-14.54661239058548" y="850.0" type="line"/>
      <point x="-21.726478152362205" y="987.0" type="line"/>
      <point x="160.2735218476378" y="987.0" type="line"/>
      <point x="160.7975996404682" y="977.0" type="line"/>
      <point x="522.7975996404682" y="977.0" type="line"/>
      <point x="529.1913487129993" y="855.0" type="line"/>
      <point x="167.19134871299931" y="855.0" type="line"/>
      <point x="167.4533876094145" y="850.0" type="line"/>
    </contour>
  </outline>
</glyph>
<glyph name="peseta" format="2">
  <advance width="1681"/>
  <unicode hex="20A7"/>
  <outline>
    <contour>
      <point x="553.3896047050814" y="565.0" type="qcurve"/>
      <point x="268.3896047050814" y="565.0" type="line"/>
      <point x="260.42362225405907" y="717.0" type="line"/>
      <point x="545.4236222540591" y="717.0" type="line"/>
      <point x="718.5579506122591" y="717.0"/>
      <point x="812.9088725943722" y="898.552238806"/>
      <point x="807.1205507034109" y="1009.0" type="qcurve"/>
      <point x="801.254008246352" y="1120.9402985075"/>
      <point x="687.7945841731137" y="1304.0"/>
      <point x="514.6602558149136" y="1304.0" type="qcurve"/>
      <point x="321.66025581491357" y="1304.0" type="line"/>
      <point x="390.0" y="0.0" type="line"/>
      <point x="205.0" y="0.0" type="line"/>
      <point x="128.69427336389123" y="1456.0" type="line"/>
      <point x="506.6942733638912" y="1456.0" type="line"/>
      <point x="752.9629300802912" y="1456.0"/>
      <point x="983.0035026848011" y="1202.0447761194"/>
      <point x="993.0157351448448" y="1011.0" type="qcurve"/>
      <point x="1003.0670778879346" y="819.2089552239"/>
      <point x="799.6582614214814" y="565.0"/>
    </contour>
    <contour>
      <point x="1538.2296184555992" y="1026.0" type="line"/>
      <point x="1545.6715231137912" y="884.0" type="line"/>
      <point x="901.6715231137911" y="884.0" type="line"/>
      <point x="894.2296184555992" y="1026.0" type="line"/>
    </contour>
    <contour>
      <point x="1114.511536864309" y="1345.0" type="line"/>
      <point x="1299.511536864309" y="1345.0" type="line"/>
      <point x="1355.954715152145" y="268.0" type="line"/>
      <point x="1360.2959565703657" y="185.1641791045"/>
      <point x="1435.4466619632572" y="139.0"/>
      <point x="1481.7153186796572" y="139.0" type="qcurve" smooth="yes"/>
      <point x="1504.8496470378573" y="139.0"/>
      <point x="1574.6105031210911" y="141.0"/>
      <point x="1632.4575319768642" y="163.0" type="qcurve"/>
      <point x="1640.3711066486035" y="12.0" type="line"/>
      <point x="1592.3144466756983" y="-6.0"/>
      <point x="1484.555618272261" y="-20.0"/>
      <point x="1436.0481555856609" y="-20.0" type="qcurve" smooth="yes"/>
      <point x="1333.809349615561" y="-20.0"/>
      <point x="1179.3892387940728" y="107.0597014925"/>
      <point x="1170.9023073728617" y="269.0" type="qcurve"/>
    </contour>
  </outline>
</glyph>
<glyph name="tenge" format="2">
  <advance width="1024"/>
  <unicode hex="20B8"/>
  <outline>
    <contour>
      <point x="454.0" y="0.0" type="line"/>
      <point x="399.60072510420264" y="1038.0" type="line"/>
      <point x="591.6007251042026" y="1038.0" type="line"/>
      <point x="646.0" y="0.0" type="line"/>
    </contour>
    <contour>
      <point x="11.269269654015588" y="968.0" type="line"/>
      <point x="2.9888405272949967" y="1126.0" type="line"/>
      <point x="978.988840527295" y="1126.0" type="line"/>
      <point x="987.2692696540156" y="968.0" type="line"/>
    </contour>
    <contour>
      <point x="-6.706598640067725" y="1311.0" type="line"/>
      <point x="-14.305726636108773" y="1456.0" type="line"/>
      <point x="961.6942733638912" y="1456.0" type="line"/>
      <point x="969.2934013599323" y="1311.0" type="line"/>
    </contour>
  </outline>
</glyph>
<glyph name="liraTurkish" format="2">
  <advance width="1024"/>
  <unicode hex="20BA"/>
  <outline>
    <contour>
      <point x="26.49580171946406" y="334.0" type="line"/>
      <point x="17.691294799913045" y="502.0" type="line"/>
      <point x="848.0907853480554" y="876.0" type="line"/>
      <point x="850.8428844883234" y="709.0" type="line"/>
    </contour>
    <contour>
      <point x="218.0" y="0.0" type="line"/>
      <point x="141.69427336389123" y="1456.0" type="line"/>
      <point x="323.6942733638912" y="1456.0" type="line"/>
      <point x="391.9816097696946" y="153.0" type="line"/>
      <point x="468.9816097696946" y="153.0" type="line" smooth="yes"/>
      <point x="676.9816097696946" y="153.0"/>
      <point x="853.9759761202558" y="363.0"/>
      <point x="845.5907314349691" y="523.0" type="qcurve" smooth="yes"/>
      <point x="843.7564591600627" y="558.0" type="line"/>
      <point x="1023.7564591600627" y="558.0" type="line"/>
      <point x="1025.5907314349693" y="523.0" type="line" smooth="yes"/>
      <point x="1037.3824817736536" y="298.0"/>
      <point x="765.0" y="0.0"/>
      <point x="477.0" y="0.0" type="qcurve" smooth="yes"/>
    </contour>
    <contour>
      <point x="7.62900117756903" y="694.0" type="line"/>
      <point x="-1.1755057419819863" y="862.0" type="line"/>
      <point x="829.2239848061604" y="1236.0" type="line"/>
      <point x="831.9760839464284" y="1069.0" type="line"/>
    </contour>
  </outline>
</glyph>
<glyph name="trademark" format="2">
  <advance width="1881"/>
  <unicode hex="2122"/>
  <outline>
    <contour>
      <point x="-6.0252975093881815" y="1298.0" type="line"/>
      <point x="-14.305726636108773" y="1456.0" type="line"/>
      <point x="693.6942733638912" y="1456.0" type="line"/>
      <point x="701.9747024906118" y="1298.0" type="line"/>
      <point x="433.97470249061183" y="1298.0" type="line"/>
      <point x="465.31455450187076" y="700.0" type="line"/>
      <point x="293.3145545018708" y="700.0" type="line"/>
      <point x="261.97470249061183" y="1298.0" type="line"/>
    </contour>
    <contour>
      <point x="851.3145545018708" y="700.0" type="line"/>
      <point x="811.6942733638912" y="1456.0" type="line"/>
      <point x="982.6942733638912" y="1456.0" type="line"/>
      <point x="1269.0907853480555" y="876.0" type="line"/>
      <point x="1277.0907853480555" y="876.0" type="line"/>
      <point x="1506.6942733638912" y="1456.0" type="line"/>
      <point x="1677.6942733638912" y="1456.0" type="line"/>
      <point x="1717.3145545018708" y="700.0" type="line"/>
      <point x="1568.3145545018708" y="700.0" type="line"/>
      <point x="1543.420859342426" y="1175.0" type="line"/>
      <point x="1531.420859342426" y="1175.0" type="line"/>
      <point x="1350.3145545018708" y="700.0" type="line"/>
      <point x="1214.3145545018708" y="700.0" type="line"/>
      <point x="993.420859342426" y="1175.0" type="line"/>
      <point x="981.420859342426" y="1175.0" type="line"/>
      <point x="1006.3145545018708" y="700.0" type="line"/>
    </contour>
  </outline>
</glyph>
<glyph name="divisionslash" format="2">
  <advance width="656"/>
  <unicode hex="2215"/>
  <outline>
    <contour>
      <point x="-11.65865870675195" y="-121.0" type="line"/>
      <point x="511.5016510212479" y="1536.0" type="line"/>
      <point x="669.5016510212479" y="1536.0" type="line"/>
      <point x="146.34134129324804" y="-121.0" type="line"/>
    </contour>
  </outline>
</glyph>
<glyph name="Cy-descendercomb.case" format="2">
  <anchor x="38.0" y="0" name="_cy-descender"/>
  <outline>
    <contour>
      <point x="157.19825599208212" y="-290.0" type="line"/>
      <point x="142.0" y="0.0" type="line"/>
      <point x="38.0" y="0.0" type="line"/>
      <point x="29.719570873279405" y="158.0" type="line"/>
      <point x="305.7195708732794" y="158.0" type="line"/>
      <point x="329.1982559920821" y="-290.0" type="line"/>
    </contour>
  </outline>
</glyph>
<glyph name="De.bgr" format="2">
  <advance width="1484"/>
  <outline>
    <contour>
      <point x="63.19825599208211" y="-290.0" type="line"/>
      <point x="39.71957087327941" y="158.0" type="line"/>
      <point x="1503.7195708732795" y="158.0" type="line"/>
      <point x="1527.198255992082" y="-290.0" type="line"/>
      <point x="1355.198255992082" y="-290.0" type="line"/>
      <point x="1340.0" y="0.0" type="line"/>
      <point x="220.0" y="0.0" type="line"/>
      <point x="235.1982559920821" y="-290.0" type="line"/>
    </contour>
    <contour>
      <point x="154.91219321592274" y="78.0" type="line"/>
      <point x="617.1701955710608" y="1466.0" type="line"/>
      <point x="789.1701955710608" y="1466.0" type="line"/>
      <point x="1395.8597854366396" y="79.0" type="line"/>
      <point x="1191.8597854366396" y="79.0" type="line"/>
      <point x="763.2947828157488" y="1082.0" type="line" smooth="yes"/>
      <point x="747.4081027615593" y="1118.0"/>
      <point x="726.525674900992" y="1173.0"/>
      <point x="714.8486259639348" y="1205.0" type="qcurve"/>
      <point x="705.8486259639348" y="1205.0" type="line"/>
      <point x="698.420859342426" y="1175.0"/>
      <point x="685.1984716444272" y="1122.0"/>
      <point x="673.9279283607675" y="1089.0" type="qcurve" smooth="yes"/>
      <point x="342.91219321592274" y="78.0" type="line"/>
    </contour>
  </outline>
</glyph>
<glyph name="Hacyr-stroke" format="2">
  <advance width="1222"/>
  <outline>
    <contour>
      <point x="189.8159898707736" y="824.0" type="line"/>
      <point x="1021.8159898707736" y="824.0" type="line"/>
      <point x="1030.5156812317587" y="658.0" type="line"/>
      <point x="198.51568123175855" y="658.0" type="line"/>
    </contour>
  </outline>
</glyph>
<glyph name="acutecomb-stack" format="2">
  <anchor x="-17.185391585042957" y="1053" name="_top"/>
  <anchor x="-43.80854346082816" y="1561" name="top"/>
  <anchor x="-17.132983805759913" y="1052" name="_topright"/>
  <outline>
    <contour>
      <point x="-16" y="1215" type="line"/>
      <point x="-128" y="1290" type="line"/>
      <point x="48" y="1561" type="line"/>
      <point x="205" y="1463" type="line"/>
    </contour>
  </outline>
</glyph>
<glyph name="acutecomb.case" format="2">
  <anchor x="-38.30572663610877" y="1456" name="_top"/>
  <anchor x="-66.71074300751741" y="1998" name="top"/>
  <outline>
    <contour>
      <point x="-162" y="1659" type="line"/>
      <point x="51" y="1998" type="line"/>
      <point x="213" y="1899" type="line"/>
      <point x="-35" y="1600" type="line"/>
    </contour>
  </outline>
</glyph>
<glyph name="be.locl" format="2">
  <advance width="1162"/>
  <outline>
    <contour>
      <point x="285.6431392142522" y="522.0" type="qcurve" smooth="yes"/>
      <point x="287.32018815130954" y="490.0" type="line" smooth="yes"/>
      <point x="295.443393940181" y="335.0"/>
      <point x="460.6062509274689" y="122.0"/>
      <point x="612.6062509274689" y="122.0" type="qcurve" smooth="yes"/>
      <point x="764.6062509274689" y="122.0"/>
      <point x="907.4433939401811" y="335.0"/>
      <point x="899.3201881513096" y="490.0" type="qcurve" smooth="yes"/>
      <point x="897.6431392142522" y="522.0" type="line" smooth="yes"/>
      <point x="889.886787880362" y="670.0"/>
      <point x="727.3570764380928" y="890.0"/>
      <point x="572.3570764380928" y="890.0" type="qcurve" smooth="yes"/>
      <point x="420.35707643809286" y="890.0"/>
      <point x="277.5199334253807" y="677.0"/>
    </contour>
    <contour>
      <point x="97.32018815130954" y="490.0" type="qcurve" smooth="yes"/>
      <point x="95.64313921425222" y="522.0" type="line" smooth="yes"/>
      <point x="87.54796435600365" y="676.4651379813"/>
      <point x="227.87920905035529" y="908.6182373664"/>
      <point x="383.21686187473256" y="969.0" type="qcurve"/>
      <point x="383.0072307576004" y="973.0" type="line"/>
      <point x="239.33018182054303" y="1005.0"/>
      <point x="123.83161718944586" y="1129.0"/>
      <point x="119.01010149540603" y="1221.0" type="qcurve" smooth="yes"/>
      <point x="112.5639446435919" y="1344.0"/>
      <point x="291.174447764683" y="1485.0"/>
      <point x="516.174447764683" y="1485.0" type="qcurve" smooth="yes"/>
      <point x="613.174447764683" y="1485.0" type="line" smooth="yes"/>
      <point x="719.174447764683" y="1485.0"/>
      <point x="812.2311077375882" y="1503.0"/>
      <point x="819.5016510212479" y="1536.0" type="qcurve"/>
      <point x="982.5016510212479" y="1536.0" type="line"/>
      <point x="976.4761378595147" y="1422.0"/>
      <point x="824.0313624635171" y="1316.0"/>
      <point x="634.0313624635171" y="1316.0" type="qcurve" smooth="yes"/>
      <point x="537.0313624635171" y="1316.0" type="line" smooth="yes"/>
      <point x="397.0313624635171" y="1316.0"/>
      <point x="293.7041592069522" y="1265.0"/>
      <point x="296.8486259639347" y="1205.0" type="qcurve" smooth="yes"/>
      <point x="300.56957829303064" y="1134.0"/>
      <point x="500.3429384014097" y="1062.0"/>
      <point x="642.6007251042026" y="1038.0" type="qcurve" smooth="yes"/>
      <point x="858.4874051583922" y="1002.0"/>
      <point x="1077.0567677990778" y="724.0"/>
      <point x="1087.6431392142522" y="522.0" type="qcurve" smooth="yes"/>
      <point x="1089.3201881513096" y="490.0" type="line" smooth="yes"/>
      <point x="1101.321569607126" y="261.0"/>
      <point x="846.5722333784912" y="-30.0"/>
      <point x="620.5722333784912" y="-30.0" type="qcurve" smooth="yes"/>
      <point x="394.57223337849126" y="-30.0"/>
      <point x="109.32156960712611" y="261.0"/>
    </contour>
  </outline>
</glyph>
<glyph name="breve.cyrcomb" format="2">
  <anchor x="-17.132983805759913" y="1052" name="_top"/>
  <anchor x="-42.39353342018603" y="1534" name="top"/>
  <outline>
    <contour>
      <point x="-33.58902650063503" y="1366.0" type="qcurve" smooth="yes"/>
      <point x="35.41097349936497" y="1366.0"/>
      <point x="125.32316671528773" y="1444.0"/>
      <point x="148.81609769694614" y="1530.0" type="qcurve"/>
      <point x="296.16594337743857" y="1447.0" type="line"/>
      <point x="256.40246911212057" y="1328.0"/>
      <point x="85.16732483325515" y="1218.0"/>
      <point x="-25.832675166744842" y="1218.0" type="qcurve" smooth="yes"/>
      <point x="-137.83267516674485" y="1218.0"/>
      <point x="-316.4403075500303" y="1325.0"/>
      <point x="-371.83405662256143" y="1447.0" type="qcurve"/>
      <point x="-232.39353342018603" y="1534.0" type="line"/>
      <point x="-198.41479438829708" y="1439.0"/>
      <point x="-102.58902650063504" y="1366.0"/>
    </contour>
  </outline>
</glyph>
<glyph name="brevecomb-stack.case" format="2">
  <anchor x="-38.30572663610877" y="1456" name="_top"/>
  <anchor x="-57.8014205294003" y="1828" name="top"/>
  <outline>
    <contour>
      <point x="200.5824427000698" y="1897.0" type="qcurve"/>
      <point x="307.0413561327506" y="1831.0" type="line"/>
      <point x="274.6008329303752" y="1744.0"/>
      <point x="91.30477648498234" y="1597.0"/>
      <point x="-45.69522351501766" y="1597.0" type="qcurve" smooth="yes"/>
      <point x="-167.69522351501766" y="1597.0"/>
      <point x="-370.7702737182283" y="1732.0"/>
      <point x="-422.01105164653245" y="1832.0" type="qcurve"/>
      <point x="-315.4175572999302" y="1897.0" type="line"/>
      <point x="-273.58753721864593" y="1843.0"/>
      <point x="-139.0280604210213" y="1756.0"/>
      <point x="-54.02806042102131" y="1756.0" type="qcurve" smooth="yes"/>
      <point x="37.97193957897869" y="1756.0"/>
      <point x="164.62209389848624" y="1839.0"/>
    </contour>
  </outline>
</glyph>
<glyph name="brevecomb.case" format="2">
  <anchor x="-38.30572663610877" y="1456" name="_top"/>
  <anchor x="-63.461460691968824" y="1936" name="top"/>
  <outline>
    <contour>
      <point x="219.53853930803118" y="1936.0" type="qcurve"/>
      <point x="323.15467607856107" y="1867.0" type="line"/>
      <point x="281.1291629168278" y="1753.0"/>
      <point x="82.14755314713321" y="1600.0"/>
      <point x="-45.85244685286679" y="1600.0" type="qcurve"/>
      <point x="-173.8524468528668" y="1600.0"/>
      <point x="-388.8708370831722" y="1753.0"/>
      <point x="-442.84532392143893" y="1867.0" type="qcurve"/>
      <point x="-346.4614606919688" y="1936.0" type="line"/>
      <point x="-300.1597705971372" y="1873.0"/>
      <point x="-149.70936155170085" y="1769.0"/>
      <point x="-54.70936155170085" y="1769.0" type="qcurve"/>
      <point x="40.29063844829915" y="1769.0"/>
      <point x="179.8402294028628" y="1873.0"/>
    </contour>
  </outline>
</glyph>
<glyph name="breveinvertedcomb-stack.case" format="2">
  <anchor x="-38.30572663610877" y="1456" name="_top"/>
  <anchor x="-61.88922731347756" y="1906" name="top"/>
  <outline>
    <contour>
      <point x="-307.166893528565" y="1606.0" type="qcurve"/>
      <point x="-413.6258069612458" y="1672.0" type="line"/>
      <point x="-381.1852837588704" y="1759.0"/>
      <point x="-197.88922731347756" y="1906.0"/>
      <point x="-60.88922731347756" y="1906.0" type="qcurve" smooth="yes"/>
      <point x="61.11077268652244" y="1906.0"/>
      <point x="264.18582288973306" y="1771.0"/>
      <point x="315.42660081803723" y="1671.0" type="qcurve"/>
      <point x="208.83310647143497" y="1606.0" type="line"/>
      <point x="167.0030863901507" y="1660.0"/>
      <point x="32.44360959252607" y="1747.0"/>
      <point x="-52.55639040747393" y="1747.0" type="qcurve" smooth="yes"/>
      <point x="-144.55639040747394" y="1747.0"/>
      <point x="-271.20654472698146" y="1664.0"/>
    </contour>
  </outline>
</glyph>
<glyph name="breveinvertedcomb.case" format="2">
  <anchor x="-38.30572663610877" y="1456" name="_top"/>
  <anchor x="-63.461460691968824" y="1936" name="top"/>
  <outline>
    <contour>
      <point x="-328.8524468528668" y="1600.0" type="qcurve"/>
      <point x="-432.4685836233967" y="1669.0" type="line"/>
      <point x="-390.4430704616634" y="1783.0"/>
      <point x="-191.46146069196882" y="1936.0"/>
      <point x="-63.461460691968824" y="1936.0" type="qcurve"/>
      <point x="64.53853930803118" y="1936.0"/>
      <point x="279.5569295383366" y="1783.0"/>
      <point x="333.5314163766033" y="1669.0" type="qcurve"/>
      <point x="237.1475531471332" y="1600.0" type="line"/>
      <point x="190.84586305230158" y="1663.0"/>
      <point x="40.395454006865236" y="1767.0"/>
      <point x="-54.604545993134764" y="1767.0" type="qcurve"/>
      <point x="-149.60454599313476" y="1767.0"/>
      <point x="-289.1541369476984" y="1663.0"/>
    </contour>
  </outline>
</glyph>
<glyph name="breveinvertedcomb.stack" format="2">
  <anchor x="-17.132983805759913" y="1052" name="_top"/>
  <anchor x="-42.445941199469075" y="1535" name="top"/>
  <outline>
    <contour>
      <point x="-260.6754518288957" y="1215.0" type="qcurve"/>
      <point x="-364.50547191017995" y="1269.0" type="line"/>
      <point x="-334.6938420592011" y="1368.0"/>
      <point x="-167.44594119946908" y="1535.0"/>
      <point x="-41.445941199469075" y="1535.0" type="qcurve" smooth="yes"/>
      <point x="71.55405880053092" y="1535.0"/>
      <point x="260.62485681011935" y="1381.0"/>
      <point x="308.59934364838614" y="1267.0" type="qcurve"/>
      <point x="211.32454817110428" y="1215.0" type="line"/>
      <point x="173.33730475197092" y="1272.0"/>
      <point x="46.148934602949765" y="1371.0"/>
      <point x="-32.851065397050235" y="1371.0" type="qcurve" smooth="yes"/>
      <point x="-116.85106539705023" y="1371.0"/>
      <point x="-227.87232636516126" y="1276.0"/>
    </contour>
  </outline>
</glyph>
<glyph name="caroncomb-stack.case" format="2">
  <anchor x="-38.30572663610877" y="1456" name="_top"/>
  <anchor x="-61.57478063777931" y="1900" name="top"/>
  <outline>
    <contour>
      <point x="-113.32836906003638" y="1590.0" type="line"/>
      <point x="-393.52662505211845" y="1880.0" type="line"/>
      <point x="-231.52662505211845" y="1880.0" type="line"/>
      <point x="-53.346759290341765" y="1743.0" type="line"/>
      <point x="104.47337494788152" y="1880.0" type="line"/>
      <point x="272.47337494788155" y="1880.0" type="line"/>
      <point x="30.67163093996362" y="1590.0" type="line"/>
    </contour>
  </outline>
</glyph>
<glyph name="circumflexcomb-stack.case" format="2">
  <anchor x="-38.30572663610877" y="1456" name="_top"/>
  <anchor x="-59.58328502502373" y="1862" name="top"/>
  <anchor x="366.0427375885671" y="1602" name="topright"/>
  <outline>
    <contour>
      <point x="5.844481596485025" y="1892.0" type="line"/>
      <point x="286.0427375885671" y="1602.0" type="line"/>
      <point x="122.04273758856712" y="1602.0" type="line"/>
      <point x="-54.13712817320959" y="1739.0" type="line"/>
      <point x="-211.95726241143288" y="1602.0" type="line"/>
      <point x="-379.9572624114329" y="1602.0" type="line"/>
      <point x="-138.15551840351498" y="1892.0" type="line"/>
    </contour>
  </outline>
</glyph>
<glyph name="circumflexcombstack.case" format="2">
  <anchor x="-42.49834897875212" y="1536" name="_top"/>
  <anchor x="-60.26458615570327" y="1875" name="top"/>
  <outline>
    <contour>
      <point x="7.73541384429673" y="1875.0" type="line"/>
      <point x="287.93366983637884" y="1585.0" type="line"/>
      <point x="125.93366983637884" y="1585.0" type="line"/>
      <point x="-52.246195925397885" y="1722.0" type="line"/>
      <point x="-210.06633016362116" y="1585.0" type="line"/>
      <point x="-378.06633016362116" y="1585.0" type="line"/>
      <point x="-136.26458615570328" y="1875.0" type="line"/>
    </contour>
  </outline>
</glyph>
<glyph name="dblgravecomb-stack.case" format="2">
  <anchor x="-38.30572663610877" y="1456" name="_top"/>
  <anchor x="-65.45295630472441" y="1974" name="top"/>
  <outline>
    <contour>
      <point x="-209.8524468528668" y="1600.0" type="line"/>
      <point x="-461.31699393498633" y="1876.0" type="line"/>
      <point x="-309.4529563047244" y="1974.0" type="line"/>
      <point x="-101.78303029909492" y="1675.0" type="line"/>
    </contour>
    <contour>
      <point x="90.14755314713321" y="1600.0" type="line"/>
      <point x="-161.31699393498633" y="1876.0" type="line"/>
      <point x="-9.45295630472441" y="1974.0" type="line"/>
      <point x="198.21696970090508" y="1675.0" type="line"/>
    </contour>
  </outline>
</glyph>
<glyph name="diagonalbarL" format="2">
  <advance width="741"/>
  <outline>
    <contour>
      <point x="94.62613043976339" y="446.0" type="line"/>
      <point x="7.393856898703621" y="584.0" type="line"/>
      <point x="649.8542596133734" y="995.0" type="line"/>
      <point x="737.9293098165841" y="860.0" type="line"/>
    </contour>
  </outline>
</glyph>
<glyph name="dieresiscomb-stack.case" format="2">
  <anchor x="-38.30572663610877" y="1456" name="_top"/>
  <anchor x="-57.958643867249435" y="1831" name="top"/>
  <outline>
    <contour>
      <point x="-392" y="1717" type="qcurve" smooth="yes"/>
      <point x="-392" y="1772"/>
      <point x="-332" y="1831"/>
      <point x="-276" y="1831" type="qcurve" smooth="yes"/>
      <point x="-223" y="1831"/>
      <point x="-160" y="1768"/>
      <point x="-160" y="1717" type="qcurve" smooth="yes"/>
      <point x="-160" y="1663"/>
      <point x="-219" y="1604"/>
      <point x="-276" y="1604" type="qcurve" smooth="yes"/>
      <point x="-329" y="1604"/>
      <point x="-392" y="1666"/>
    </contour>
    <contour>
      <point x="68" y="1717" type="qcurve" smooth="yes"/>
      <point x="68" y="1772"/>
      <point x="128" y="1831"/>
      <point x="184" y="1831" type="qcurve" smooth="yes"/>
      <point x="237" y="1831"/>
      <point x="300" y="1768"/>
      <point x="300" y="1717" type="qcurve" smooth="yes"/>
      <point x="300" y="1663"/>
      <point x="241" y="1604"/>
      <point x="184" y="1604" type="qcurve" smooth="yes"/>
      <point x="131" y="1604"/>
      <point x="68" y="1666"/>
    </contour>
  </outline>
</glyph>
<glyph name="dieresiscombstack.case" format="2">
  <anchor x="-42.49834897875212" y="1536" name="_top"/>
  <anchor x="-58.48272166007985" y="1841" name="top"/>
  <outline>
    <contour>
      <point x="-394" y="1727" type="qcurve" smooth="yes"/>
      <point x="-394" y="1782"/>
      <point x="-334" y="1841"/>
      <point x="-278" y="1841" type="qcurve" smooth="yes"/>
      <point x="-225" y="1841"/>
      <point x="-162" y="1778"/>
      <point x="-162" y="1727" type="qcurve" smooth="yes"/>
      <point x="-162" y="1673"/>
      <point x="-221" y="1614"/>
      <point x="-278" y="1614" type="qcurve" smooth="yes"/>
      <point x="-331" y="1614"/>
      <point x="-394" y="1676"/>
    </contour>
    <contour>
      <point x="66" y="1727" type="qcurve" smooth="yes"/>
      <point x="66" y="1782"/>
      <point x="126" y="1841"/>
      <point x="182" y="1841" type="qcurve" smooth="yes"/>
      <point x="235" y="1841"/>
      <point x="298" y="1778"/>
      <point x="298" y="1727" type="qcurve" smooth="yes"/>
      <point x="298" y="1673"/>
      <point x="239" y="1614"/>
      <point x="182" y="1614" type="qcurve" smooth="yes"/>
      <point x="129" y="1614"/>
      <point x="66" y="1676"/>
    </contour>
  </outline>
</glyph>
<glyph name="dotbelowcomb.case" format="2">
  <anchor x="38.0" y="0" name="_bottom"/>
  <anchor x="59.32996616819799" y="-407" name="bottom"/>
  <outline>
    <contour>
      <point x="-68" y="-296" type="qcurve" smooth="yes"/>
      <point x="-68" y="-249"/>
      <point x="-8" y="-185"/>
      <point x="48" y="-185" type="qcurve" smooth="yes"/>
      <point x="104" y="-185"/>
      <point x="164" y="-249"/>
      <point x="164" y="-296" type="qcurve" smooth="yes"/>
      <point x="164" y="-343"/>
      <point x="104" y="-407"/>
      <point x="48" y="-407" type="qcurve" smooth="yes"/>
      <point x="-8" y="-407"/>
      <point x="-68" y="-343"/>
    </contour>
  </outline>
</glyph>
<glyph name="eight.prop" format="2">
  <advance width="1156"/>
  <outline>
    <contour>
      <point x="619" y="-30" type="qcurve" smooth="yes"/>
      <point x="419" y="-30"/>
      <point x="132" y="188"/>
      <point x="122" y="386" type="qcurve"/>
      <point x="112" y="568"/>
      <point x="377" y="787"/>
      <point x="576" y="787" type="qcurve" smooth="yes"/>
      <point x="771" y="787"/>
      <point x="1060" y="568"/>
      <point x="1070" y="386" type="qcurve" smooth="yes"/>
      <point x="1080" y="188"/>
      <point x="819" y="-30"/>
    </contour>
    <contour>
      <point x="610" y="128" type="qcurve" smooth="yes"/>
      <point x="740" y="128"/>
      <point x="888" y="276"/>
      <point x="881" y="396" type="qcurve" smooth="yes"/>
      <point x="875" y="516"/>
      <point x="712" y="666"/>
      <point x="582" y="666" type="qcurve" smooth="yes"/>
      <point x="452" y="666"/>
      <point x="303" y="516"/>
      <point x="309" y="396" type="qcurve" smooth="yes"/>
      <point x="316" y="276"/>
      <point x="480" y="128"/>
    </contour>
    <contour>
      <point x="580" y="710" type="qcurve" smooth="yes"/>
      <point x="373" y="710"/>
      <point x="139" y="927"/>
      <point x="131" y="1087" type="qcurve" smooth="yes"/>
      <point x="122" y="1267"/>
      <point x="359" y="1486"/>
      <point x="539" y="1486" type="qcurve" smooth="yes"/>
      <point x="719" y="1486"/>
      <point x="977" y="1269"/>
      <point x="987" y="1087" type="qcurve"/>
      <point x="995" y="927"/>
      <point x="785" y="710"/>
    </contour>
    <contour>
      <point x="574" y="824" type="qcurve" smooth="yes"/>
      <point x="684" y="824"/>
      <point x="809" y="967"/>
      <point x="804" y="1077" type="qcurve" smooth="yes"/>
      <point x="798" y="1187"/>
      <point x="657" y="1328"/>
      <point x="547" y="1328" type="qcurve" smooth="yes"/>
      <point x="437" y="1328"/>
      <point x="310" y="1187"/>
      <point x="316" y="1077" type="qcurve" smooth="yes"/>
      <point x="321" y="967"/>
      <point x="464" y="824"/>
    </contour>
  </outline>
</glyph>
<glyph name="engtail" format="2">
  <advance width="629"/>
  <anchor x="467.0" y="0" name="_engtail"/>
  <outline>
    <contour>
      <point x="427.04252193622204" y="190.0" type="line"/>
      <point x="550.0425219362221" y="190.0" type="line"/>
      <point x="570.2195169601931" y="-195.0" type="line" smooth="yes"/>
      <point x="575.4602948884973" y="-295.0"/>
      <point x="462.2166462223875" y="-443.0"/>
      <point x="330.2166462223875" y="-443.0" type="qcurve" smooth="yes"/>
      <point x="258.21664622238745" y="-443.0"/>
      <point x="124.9673639068389" y="-381.0"/>
      <point x="82.24215938412073" y="-329.0" type="qcurve"/>
      <point x="141.3115759378926" y="-254.0" type="line"/>
      <point x="185.46029488849732" y="-295.0"/>
      <point x="242.03252826698858" y="-325.0"/>
      <point x="283.0325282669886" y="-325.0" type="qcurve" smooth="yes"/>
      <point x="327.03252826698855" y="-325.0"/>
      <point x="387.8880615100061" y="-265.0"/>
      <point x="382.6472835817019" y="-165.0" type="qcurve"/>
      <point x="377.1444667569825" y="-60.0"/>
      <point x="371.64164993226314" y="45.0"/>
      <point x="366.13883310754375" y="150.0" type="qcurve"/>
    </contour>
  </outline>
</glyph>
<glyph name="four.prop" format="2">
  <advance width="1011"/>
  <outline>
    <contour>
      <point x="661" y="0" type="line"/>
      <point x="640" y="398" type="line"/>
      <point x="637" y="450" type="line"/>
      <point x="593" y="1307" type="line"/>
      <point x="593" y="1456" type="line"/>
      <point x="765" y="1456" type="line"/>
      <point x="841" y="0" type="line"/>
    </contour>
    <contour>
      <point x="7" y="342" type="line"/>
      <point x="0" y="468" type="line"/>
      <point x="593" y="1456" type="line"/>
      <point x="765" y="1456" type="line"/>
      <point x="780" y="1149" type="line"/>
      <point x="589" y="1149" type="line"/>
      <point x="218" y="500" type="line"/>
      <point x="686" y="500" type="line"/>
      <point x="763" y="500" type="line"/>
      <point x="1019" y="500" type="line"/>
      <point x="1027" y="342" type="line"/>
    </contour>
  </outline>
</glyph>
<glyph name="ghe.bgr" format="2">
  <advance width="1010"/>
  <outline>
    <contour>
      <point x="951.753588422257" y="310.0" type="line"/>
      <point x="952.0156273186723" y="305.0" type="line" smooth="yes"/>
      <point x="959.9816097696946" y="153.0"/>
      <point x="749.5722333784912" y="-30.0"/>
      <point x="539.5722333784913" y="-30.0" type="qcurve" smooth="yes"/>
      <point x="327.57223337849126" y="-30.0"/>
      <point x="110.30250409016442" y="146.8769716088"/>
      <point x="103.0637829043331" y="285.0" type="qcurve" smooth="yes"/>
      <point x="95.62936507175529" y="426.8571428571"/>
      <point x="272.86560535803926" y="576.0125038885"/>
      <point x="440.7168079616463" y="616.0" type="qcurve" smooth="yes"/>
      <point x="608.830052764037" y="656.0499228993"/>
      <point x="720.7947289026625" y="729.0"/>
      <point x="717.493038807831" y="792.0" type="qcurve" smooth="yes"/>
      <point x="714.3485720508485" y="852.0"/>
      <point x="608.2607652667712" y="930.0"/>
      <point x="499.26076526677116" y="930.0" type="qcurve" smooth="yes"/>
      <point x="389.26076526677116" y="930.0"/>
      <point x="288.76783428511277" y="844.0"/>
      <point x="292.6984177313409" y="769.0" type="qcurve" smooth="yes"/>
      <point x="293.1700877448883" y="760.0" type="line"/>
      <point x="108.17008774488828" y="760.0" type="line"/>
      <point x="107.90804884847307" y="765.0" type="line" smooth="yes"/>
      <point x="100.25651307314897" y="911.0"/>
      <point x="311.2947828157488" y="1082.0"/>
      <point x="491.2947828157488" y="1082.0" type="qcurve" smooth="yes"/>
      <point x="688.2947828157488" y="1082.0"/>
      <point x="894.9420663974507" y="917.0"/>
      <point x="901.4406310285478" y="793.0" type="qcurve" smooth="yes"/>
      <point x="908.7253123488907" y="654.0"/>
      <point x="716.2442841232072" y="509.9933894383"/>
      <point x="548.3683437369704" y="470.0" type="qcurve" smooth="yes"/>
      <point x="380.223555301551" y="429.9425624039"/>
      <point x="282.5524616923693" y="352.0"/>
      <point x="286.4306373593144" y="278.0" type="qcurve" smooth="yes"/>
      <point x="290.36122080554253" y="203.0"/>
      <point x="425.6062509274689" y="122.0"/>
      <point x="531.6062509274689" y="122.0" type="qcurve" smooth="yes"/>
      <point x="641.6062509274689" y="122.0"/>
      <point x="770.784735233429" y="214.0"/>
      <point x="766.0156273186723" y="305.0" type="qcurve" smooth="yes"/>
      <point x="765.753588422257" y="310.0" type="line"/>
    </contour>
  </outline>
</glyph>
<glyph name="gravecomb.case" format="2">
  <anchor x="-38.25331885682574" y="1455" name="_top"/>
  <anchor x="-65.45295630472441" y="1974" name="top"/>
  <outline>
    <contour>
      <point x="-90" y="1600" type="line"/>
      <point x="-327" y="1876" type="line"/>
      <point x="-170" y="1974" type="line"/>
      <point x="22" y="1675" type="line"/>
    </contour>
  </outline>
</glyph>
<glyph name="hard.bgr" format="2">
  <advance width="1260"/>
  <outline>
    <contour>
      <point x="339.60486947165236" y="351.0" type="qcurve" smooth="yes"/>
      <point x="310.4661441902811" y="907.0" type="line"/>
      <point x="20.466144190281135" y="907.0" type="line"/>
      <point x="12.867016194240087" y="1052.0" type="line"/>
      <point x="488.8670161942401" y="1052.0" type="line"/>
      <point x="525.6048694716524" y="351.0" type="line" smooth="yes"/>
      <point x="530.7932396206735" y="252.0"/>
      <point x="649.5538431481858" y="123.0"/>
      <point x="789.5538431481858" y="123.0" type="qcurve" smooth="yes"/>
      <point x="931.5538431481858" y="123.0"/>
      <point x="1038.7932396206734" y="252.0"/>
      <point x="1033.6048694716524" y="351.0" type="qcurve" smooth="yes"/>
      <point x="1028.5737226604804" y="447.0"/>
      <point x="916.9703424708171" y="573.0"/>
      <point x="785.9703424708171" y="573.0" type="qcurve" smooth="yes"/>
      <point x="423.97034247081706" y="573.0" type="line"/>
      <point x="416.371214474776" y="718.0" type="line"/>
      <point x="778.371214474776" y="718.0" type="line" smooth="yes"/>
      <point x="981.371214474776" y="718.0"/>
      <point x="1210.6955469935353" y="521.0"/>
      <point x="1219.6048694716524" y="351.0" type="qcurve" smooth="yes"/>
      <point x="1228.7238230669016" y="177.0"/>
      <point x="1010.5722333784912" y="-30.0"/>
      <point x="797.5722333784912" y="-30.0" type="qcurve" smooth="yes"/>
      <point x="586.5722333784912" y="-30.0"/>
      <point x="348.7238230669016" y="177.0"/>
    </contour>
  </outline>
</glyph>
<glyph name="hookabovecomb-stack" format="2">
  <anchor x="-17.132983805759913" y="1052" name="_top"/>
  <anchor x="-48.83969027200017" y="1657" name="top"/>
  <anchor x="-17.132983805759913" y="1052" name="_topright"/>
  <outline>
    <contour>
      <point x="-96.93749072531094" y="1220.0" type="line"/>
      <point x="-99.08620967591565" y="1261.0" type="line" smooth="yes"/>
      <point x="-101.81141419863383" y="1313.0"/>
      <point x="-59.79865761776719" y="1370.0"/>
      <point x="15.362817913704149" y="1386.0" type="qcurve" smooth="yes"/>
      <point x="47.995963458722855" y="1393.0"/>
      <point x="90.47613785951464" y="1422.0"/>
      <point x="88.85149670174034" y="1453.0" type="qcurve" smooth="yes"/>
      <point x="87.17444776468301" y="1485.0"/>
      <point x="25.707029944757835" y="1513.0"/>
      <point x="-35.292970055242165" y="1513.0" type="qcurve" smooth="yes"/>
      <point x="-99.29297005524217" y="1513.0"/>
      <point x="-197.66832889746786" y="1482.0"/>
      <point x="-214.14425110463745" y="1472.0" type="qcurve"/>
      <point x="-274.6952235150177" y="1597.0" type="line"/>
      <point x="-240.69097132139547" y="1616.0"/>
      <point x="-93.83969027200015" y="1657.0"/>
      <point x="-11.839690272000169" y="1657.0" type="qcurve" smooth="yes"/>
      <point x="108.16030972799983" y="1657.0"/>
      <point x="247.13479656626657" y="1543.0"/>
      <point x="252.11353559815555" y="1448.0" type="qcurve" smooth="yes"/>
      <point x="256.1489346029498" y="1371.0"/>
      <point x="166.49452808982002" y="1269.0"/>
      <point x="24.071013661933492" y="1258.0" type="qcurve"/>
      <point x="26.06250927468907" y="1220.0" type="line"/>
    </contour>
  </outline>
</glyph>
<glyph name="hookcomb-stack.case" format="2">
  <anchor x="-38.30572663610877" y="1456" name="_top"/>
  <anchor x="-67.54926747604607" y="2014" name="top"/>
  <anchor x="-38.30572663610877" y="1456" name="_topright"/>
  <outline>
    <contour>
      <point x="-125.85244685286679" y="1600.0" type="line"/>
      <point x="-128.31561247916977" y="1647.0" type="line" smooth="yes"/>
      <point x="-130.67396254690664" y="1692.0"/>
      <point x="-81.29435151105872" y="1742.0"/>
      <point x="-14.870837083172177" y="1753.0" type="qcurve" smooth="yes"/>
      <point x="28.76230846184653" y="1760.0"/>
      <point x="59.294890641921356" y="1788.0"/>
      <point x="57.40821058773186" y="1824.0" type="qcurve" smooth="yes"/>
      <point x="55.888384988523654" y="1853.0"/>
      <point x="12.525782727164568" y="1879.0"/>
      <point x="-36.47421727283543" y="1879.0" type="qcurve" smooth="yes"/>
      <point x="-92.47421727283543" y="1879.0"/>
      <point x="-189.95439167362724" y="1850.0"/>
      <point x="-198.58753721864593" y="1843.0" type="qcurve"/>
      <point x="-252.82406295332788" y="1962.0" type="line"/>
      <point x="-222.71499520113963" y="1979.0"/>
      <point x="-88.54926747604607" y="2014.0"/>
      <point x="-14.549267476046069" y="2014.0" type="qcurve" smooth="yes"/>
      <point x="91.45073252395393" y="2014.0"/>
      <point x="206.63910267297507" y="1915.0"/>
      <point x="211.04135613275056" y="1831.0" type="qcurve" smooth="yes"/>
      <point x="215.6008329303752" y="1744.0"/>
      <point x="127.36994084513199" y="1653.0"/>
      <point x="20.894018637962418" y="1643.0" type="qcurve"/>
      <point x="23.14755314713321" y="1600.0" type="line"/>
    </contour>
  </outline>
</glyph>
<glyph name="idot" format="2">
  <anchor x="-17" y="1052" name="_top"/>
  <outline>
    <contour>
      <point x="-144" y="1370" type="qcurve" smooth="yes"/>
      <point x="-144" y="1417"/>
      <point x="-84" y="1481"/>
      <point x="-28" y="1481" type="qcurve" smooth="yes"/>
      <point x="28" y="1481"/>
      <point x="88" y="1417"/>
      <point x="88" y="1370" type="qcurve" smooth="yes"/>
      <point x="88" y="1323"/>
      <point x="28" y="1259"/>
      <point x="-28" y="1259" type="qcurve" smooth="yes"/>
      <point x="-84" y="1259"/>
      <point x="-144" y="1323"/>
    </contour>
  </outline>
</glyph>
<glyph name="ringcomb-stack.case" format="2">
  <anchor x="-38.30572663610877" y="1456" name="_top"/>
  <anchor x="-65.24332518759223" y="1970" name="top"/>
  <outline>
    <contour>
      <point x="-271" y="1787" type="qcurve" smooth="yes"/>
      <point x="-271" y="1882"/>
      <point x="-143" y="2004"/>
      <point x="-44" y="2004" type="qcurve" smooth="yes"/>
      <point x="55" y="2004"/>
      <point x="183" y="1882"/>
      <point x="183" y="1787" type="qcurve" smooth="yes"/>
      <point x="183" y="1692"/>
      <point x="55" y="1570"/>
      <point x="-44" y="1570" type="qcurve"/>
      <point x="-143" y="1570"/>
      <point x="-271" y="1692"/>
    </contour>
    <contour>
      <point x="-148" y="1787" type="qcurve" smooth="yes"/>
      <point x="-148" y="1740"/>
      <point x="-92" y="1683"/>
      <point x="-44" y="1683" type="qcurve" smooth="yes"/>
      <point x="7" y="1683"/>
      <point x="60" y="1737"/>
      <point x="60" y="1787" type="qcurve" smooth="yes"/>
      <point x="60" y="1834"/>
      <point x="4" y="1891"/>
      <point x="-44" y="1891" type="qcurve" smooth="yes"/>
      <point x="-95" y="1891"/>
      <point x="-148" y="1838"/>
    </contour>
  </outline>
</glyph>
<glyph name="ringcomb-stack" format="2">
  <anchor x="-17.132983805759913" y="1052" name="_top"/>
  <anchor x="-46.06207796999895" y="1604" name="top"/>
  <outline>
    <contour>
      <point x="-249" y="1437" type="qcurve" smooth="yes"/>
      <point x="-249" y="1534"/>
      <point x="-122" y="1658"/>
      <point x="-25" y="1658" type="qcurve" smooth="yes"/>
      <point x="72" y="1658"/>
      <point x="199" y="1534"/>
      <point x="199" y="1437" type="qcurve" smooth="yes"/>
      <point x="199" y="1340"/>
      <point x="72" y="1215"/>
      <point x="-25" y="1215" type="qcurve"/>
      <point x="-122" y="1215"/>
      <point x="-249" y="1340"/>
    </contour>
    <contour>
      <point x="-131" y="1437" type="qcurve" smooth="yes"/>
      <point x="-131" y="1387"/>
      <point x="-74" y="1327"/>
      <point x="-25" y="1327" type="qcurve" smooth="yes"/>
      <point x="27" y="1327"/>
      <point x="81" y="1383"/>
      <point x="81" y="1437" type="qcurve" smooth="yes"/>
      <point x="81" y="1486"/>
      <point x="24" y="1546"/>
      <point x="-25" y="1546" type="qcurve" smooth="yes"/>
      <point x="-77" y="1546"/>
      <point x="-131" y="1490"/>
    </contour>
  </outline>
</glyph>
<glyph name="ringcomb.case" format="2">
  <anchor x="-38.30572663610877" y="1456" name="_top"/>
  <anchor x="-69.8552097644999" y="2058" name="top"/>
  <outline>
    <contour>
      <point x="-285" y="1829" type="qcurve" smooth="yes"/>
      <point x="-285" y="1929"/>
      <point x="-150" y="2058"/>
      <point x="-46" y="2058" type="qcurve" smooth="yes"/>
      <point x="58" y="2058"/>
      <point x="193" y="1929"/>
      <point x="193" y="1829" type="qcurve" smooth="yes"/>
      <point x="193" y="1729"/>
      <point x="58" y="1600"/>
      <point x="-46" y="1600" type="qcurve"/>
      <point x="-150" y="1600"/>
      <point x="-285" y="1729"/>
    </contour>
    <contour>
      <point x="-159" y="1829" type="qcurve" smooth="yes"/>
      <point x="-159" y="1778"/>
      <point x="-98" y="1716"/>
      <point x="-46" y="1716" type="qcurve" smooth="yes"/>
      <point x="9" y="1716"/>
      <point x="67" y="1774"/>
      <point x="67" y="1829" type="qcurve" smooth="yes"/>
      <point x="67" y="1880"/>
      <point x="6" y="1942"/>
      <point x="-46" y="1942" type="qcurve" smooth="yes"/>
      <point x="-101" y="1942"/>
      <point x="-159" y="1884"/>
    </contour>
  </outline>
</glyph>
<glyph name="sha.bgr" format="2">
  <advance width="1764"/>
  <anchor x="1568.0" y="0" name="cy_descender"/>
  <outline>
    <contour>
      <point x="1599" y="1052" type="line"/>
      <point x="1654" y="0" type="line"/>
      <point x="1486" y="0" type="line"/>
      <point x="1458" y="195" type="line"/>
      <point x="1413" y="1052" type="line"/>
    </contour>
    <contour>
      <point x="803" y="373" type="qcurve" smooth="yes"/>
      <point x="767" y="1052" type="line"/>
      <point x="953" y="1052" type="line"/>
      <point x="989" y="371" type="line" smooth="yes"/>
      <point x="995" y="245"/>
      <point x="1104" y="136"/>
      <point x="1208" y="136" type="qcurve" smooth="yes"/>
      <point x="1299" y="136"/>
      <point x="1444" y="252"/>
      <point x="1536" y="485" type="qcurve"/>
      <point x="1545" y="306" type="line"/>
      <point x="1484" y="120"/>
      <point x="1280" y="-20"/>
      <point x="1161" y="-20" type="qcurve" smooth="yes"/>
      <point x="1002" y="-20"/>
      <point x="817" y="161"/>
    </contour>
    <contour>
      <point x="899" y="306" type="line"/>
      <point x="838" y="120"/>
      <point x="634" y="-20"/>
      <point x="515" y="-20" type="qcurve" smooth="yes"/>
      <point x="356" y="-20"/>
      <point x="171" y="161"/>
      <point x="157" y="373" type="qcurve" smooth="yes"/>
      <point x="121" y="1052" type="line"/>
      <point x="307" y="1052" type="line"/>
      <point x="343" y="371" type="line" smooth="yes"/>
      <point x="349" y="245"/>
      <point x="458" y="136"/>
      <point x="562" y="136" type="qcurve" smooth="yes"/>
      <point x="653" y="136"/>
      <point x="798" y="252"/>
      <point x="890" y="485" type="qcurve"/>
    </contour>
  </outline>
</glyph>
<glyph name="tildecombstack.case" format="2">
  <anchor x="-42.49834897875212" y="1536" name="_top"/>
  <anchor x="-62.72775178200624" y="1922" name="top"/>
  <outline>
    <contour>
      <point x="-394.0762160066821" y="1776.0" type="line"/>
      <point x="-357.84957611506115" y="1848.0"/>
      <point x="-237.72775178200624" y="1922.0"/>
      <point x="-170.72775178200624" y="1922.0" type="qcurve" smooth="yes"/>
      <point x="-135.72775178200624" y="1922.0"/>
      <point x="-61.57478063777931" y="1900.0"/>
      <point x="-24.212178376420226" y="1874.0" type="qcurve" smooth="yes"/>
      <point x="6.940792767806684" y="1852.0"/>
      <point x="74.77506504271315" y="1817.0"/>
      <point x="106.77506504271315" y="1817.0" type="qcurve" smooth="yes"/>
      <point x="146.77506504271315" y="1817.0"/>
      <point x="191.67875387139148" y="1857.0"/>
      <point x="210.63485047935285" y="1896.0" type="qcurve"/>
      <point x="309.4039583941096" y="1805.0" type="line"/>
      <point x="281.28213406105476" y="1731.0"/>
      <point x="171.16030972799985" y="1657.0"/>
      <point x="106.16030972799983" y="1657.0" type="qcurve" smooth="yes"/>
      <point x="57.16030972799983" y="1657.0"/>
      <point x="-26.673962546906637" y="1692.0"/>
      <point x="-57.72211813256746" y="1712.0" type="qcurve" smooth="yes"/>
      <point x="-89.82268149751134" y="1733.0"/>
      <point x="-155.7617693309839" y="1770.0"/>
      <point x="-179.7617693309839" y="1770.0" type="qcurve" smooth="yes"/>
      <point x="-215.7617693309839" y="1770.0"/>
      <point x="-273.8793414704166" y="1715.0"/>
      <point x="-291.30710809192533" y="1685.0" type="qcurve"/>
    </contour>
  </outline>
</glyph>
<glyph name="tonoscomb.case" format="2">
  <anchor x="18.867016194240087" y="1052" name="_tonos"/>
  <outline>
    <contour>
      <point x="18.867016194240087" y="1052.0" type="line"/>
      <point x="-105.70521718425118" y="1082.0" type="line"/>
      <point x="-52.2009110775427" y="1454.0" type="line"/>
      <point x="133.7948367288351" y="1435.0" type="line"/>
    </contour>
  </outline>
</glyph>
<glyph name="ve.bgr" format="2">
  <advance width="1074"/>
  <outline>
    <contour>
      <point x="142.0368882867833" y="400.0" type="qcurve" smooth="yes"/>
      <point x="106.92367616714533" y="1070.0" type="line" smooth="yes"/>
      <point x="97.07101366193349" y="1258.0"/>
      <point x="311.6461177782304" y="1476.0"/>
      <point x="503.6461177782304" y="1476.0" type="qcurve" smooth="yes"/>
      <point x="690.6461177782304" y="1476.0"/>
      <point x="918.7565669862353" y="1264.0"/>
      <point x="928.3995983743149" y="1080.0" type="qcurve" smooth="yes"/>
      <point x="932.9066673926565" y="994.0"/>
      <point x="838.287659884321" y="815.0"/>
      <point x="726.85564106919" y="766.0" type="qcurve"/>
      <point x="727.0652721863222" y="762.0" type="line"/>
      <point x="847.4278744476812" y="736.0"/>
      <point x="1007.2323813672323" y="568.0"/>
      <point x="1014.9363249218394" y="421.0" type="qcurve" smooth="yes"/>
      <point x="1026.4660363641087" y="201.0"/>
      <point x="801.5722333784912" y="-30.0"/>
      <point x="601.5722333784912" y="-30.0" type="qcurve" smooth="yes"/>
      <point x="388.57223337849126" y="-30.0"/>
      <point x="152.46603636410862" y="201.0"/>
    </contour>
    <contour>
      <point x="328.0368882867833" y="400.0" type="line" smooth="yes"/>
      <point x="335.53120072425827" y="257.0"/>
      <point x="469.6062509274689" y="122.0"/>
      <point x="593.6062509274689" y="122.0" type="qcurve" smooth="yes"/>
      <point x="717.6062509274689" y="122.0"/>
      <point x="837.5312007242583" y="257.0"/>
      <point x="828.9887327011224" y="420.0" type="qcurve" smooth="yes"/>
      <point x="822.070905835761" y="552.0"/>
      <point x="666.2054867496824" y="683.0"/>
      <point x="525.9434478532673" y="688.0" type="qcurve" smooth="yes"/>
      <point x="232.9434478532673" y="688.0" type="line"/>
      <point x="225.50154319507536" y="830.0" type="line"/>
      <point x="509.5015431950753" y="830.0" type="line" smooth="yes"/>
      <point x="624.5015431950753" y="830.0"/>
      <point x="750.6361241089969" y="961.0"/>
      <point x="744.9236761671453" y="1070.0" type="qcurve" smooth="yes"/>
      <point x="738.215480418916" y="1198.0"/>
      <point x="622.6121002292527" y="1324.0"/>
      <point x="511.61210022925275" y="1324.0" type="qcurve" smooth="yes"/>
      <point x="399.61210022925275" y="1324.0"/>
      <point x="286.47751931533116" y="1193.0"/>
      <point x="292.92367616714535" y="1070.0" type="qcurve" smooth="yes"/>
    </contour>
  </outline>
</glyph>
